<svg width="301" height="86" viewBox="0 0 301 86" fill="none" xmlns="http://www.w3.org/2000/svg">
<path d="M0.910885 28.128C1.27088 27.336 1.70288 26.316 2.20688 25.068C2.71088 23.82 3.23888 22.476 3.79088 21.036C4.34289 19.572 4.90689 18.084 5.48289 16.572C6.05888 15.036 6.59888 13.584 7.10288 12.216C7.60689 10.848 8.03889 9.624 8.39889 8.544C8.78289 7.464 9.05889 6.636 9.22689 6.06C7.71489 6.684 6.41889 7.632 5.33888 8.904C4.25888 10.176 3.44288 11.772 2.89088 13.692C2.33888 13.5 1.83488 13.164 1.37888 12.684C0.922885 12.18 0.622885 11.556 0.478885 10.812C0.718885 9.708 1.16288 8.7 1.81088 7.788C2.48288 6.876 3.32289 6.096 4.33088 5.448C5.33888 4.8 6.50288 4.308 7.82289 3.972C9.14289 3.612 10.5589 3.432 12.0709 3.432C13.9909 3.432 15.7549 3.72 17.3629 4.296C18.9709 4.848 20.3509 5.628 21.5029 6.636C22.6549 7.644 23.5549 8.856 24.2029 10.272C24.8509 11.688 25.1749 13.26 25.1749 14.988C25.1749 17.34 24.7429 19.584 23.8789 21.72C23.0149 23.856 21.8389 25.74 20.3509 27.372C18.8869 29.004 17.1829 30.3 15.2389 31.26C13.2949 32.244 11.2549 32.736 9.11889 32.736C7.15089 32.736 5.45889 32.34 4.04289 31.548C2.65089 30.78 1.60688 29.64 0.910885 28.128ZM13.6189 5.232C12.4189 5.232 11.2789 5.4 10.1989 5.736C11.2549 6.12 12.1309 6.528 12.8269 6.96C13.5229 7.368 14.0029 7.692 14.2669 7.932C14.0749 8.196 13.7869 8.664 13.4029 9.336C13.0429 10.008 12.6109 10.824 12.1069 11.784C11.6269 12.744 11.1109 13.8 10.5589 14.952C10.0069 16.08 9.46689 17.244 8.93889 18.444C7.57089 21.492 6.57489 23.892 5.95089 25.644C5.35089 27.396 5.05089 28.608 5.05089 29.28C5.38689 29.4 5.79489 29.484 6.27488 29.532C6.75488 29.58 7.27088 29.604 7.82289 29.604C9.76689 29.604 11.6029 29.16 13.3309 28.272C15.0829 27.36 16.6069 26.148 17.9029 24.636C19.2229 23.124 20.2549 21.372 20.9989 19.38C21.7669 17.364 22.1509 15.252 22.1509 13.044C22.1509 10.572 21.3829 8.652 19.8469 7.284C18.3109 5.916 16.2349 5.232 13.6189 5.232ZM42.1424 15.096C42.0464 16.584 41.7824 17.868 41.3504 18.948C40.9184 20.004 40.2944 20.94 39.4784 21.756C38.6864 22.548 37.7144 23.268 36.5624 23.916C35.4104 24.564 34.0664 25.188 32.5304 25.788C32.5304 25.932 32.5184 26.088 32.4944 26.256C32.4944 26.4 32.4944 26.556 32.4944 26.724C32.4944 27.036 32.5184 27.36 32.5664 27.696C32.6144 28.032 32.6984 28.344 32.8184 28.632C32.9384 28.92 33.1064 29.16 33.3224 29.352C33.5384 29.52 33.8144 29.604 34.1504 29.604C34.7984 29.604 35.4344 29.46 36.0584 29.172C36.6824 28.884 37.2704 28.536 37.8224 28.128C38.3984 27.696 38.9264 27.24 39.4064 26.76C39.9104 26.256 40.3544 25.8 40.7384 25.392C40.9784 25.608 41.1824 25.812 41.3504 26.004C40.2704 27.444 39.0824 28.644 37.7864 29.604C36.5144 30.54 35.3024 31.14 34.1504 31.404C32.4944 31.212 31.1984 30.612 30.2624 29.604C29.3504 28.572 28.8944 27.336 28.8944 25.896C28.8944 24.912 29.0264 23.916 29.2904 22.908C29.5784 21.876 29.9624 20.892 30.4424 19.956C30.9464 18.996 31.5224 18.096 32.1704 17.256C32.8424 16.416 33.5504 15.684 34.2944 15.06C35.0624 14.436 35.8424 13.944 36.6344 13.584C37.4504 13.224 38.2544 13.044 39.0464 13.044C40.1504 13.188 41.1824 13.872 42.1424 15.096ZM39.6584 16.284C39.0104 16.38 38.3384 16.644 37.6424 17.076C36.9464 17.508 36.2864 18.084 35.6624 18.804C35.0624 19.524 34.5104 20.364 34.0064 21.324C33.5024 22.284 33.1064 23.316 32.8184 24.42C34.7384 23.46 36.3344 22.284 37.6064 20.892C38.8784 19.476 39.5624 17.94 39.6584 16.284ZM59.1091 15.456C59.3491 15.456 59.6251 15.504 59.9371 15.6C60.2731 15.672 60.5731 15.78 60.8371 15.924C61.1011 16.044 61.3171 16.176 61.4851 16.32C61.6771 16.464 61.7731 16.596 61.7731 16.716C61.2931 17.724 60.8491 18.744 60.4411 19.776C60.0331 20.784 59.6851 21.756 59.3971 22.692C59.1091 23.628 58.8811 24.504 58.7131 25.32C58.5691 26.136 58.4971 26.844 58.4971 27.444C58.4971 28.116 58.5691 28.68 58.7131 29.136C58.8571 29.568 59.0971 29.88 59.4331 30.072C59.1451 30.264 58.7731 30.42 58.3171 30.54C57.8611 30.66 57.4531 30.72 57.0931 30.72C55.7971 30.72 55.1491 29.832 55.1491 28.056C55.1491 26.688 55.6051 24.816 56.5171 22.44C56.0371 23.544 55.4851 24.588 54.8611 25.572C54.2371 26.532 53.6011 27.384 52.9531 28.128C52.3051 28.872 51.6451 29.484 50.9731 29.964C50.3251 30.42 49.7251 30.696 49.1731 30.792C48.2851 30.744 47.5651 30.324 47.0131 29.532C46.4611 28.716 46.1851 27.684 46.1851 26.436C46.1851 25.092 46.4731 23.676 47.0491 22.188C47.6251 20.7 48.3571 19.32 49.2451 18.048C50.1571 16.776 51.1411 15.72 52.1971 14.88C53.2531 14.016 54.2731 13.56 55.2571 13.512C55.4971 13.584 55.7611 13.728 56.0491 13.944C56.3611 14.16 56.6491 14.412 56.9131 14.7C57.2011 14.988 57.4411 15.288 57.6331 15.6C57.8251 15.888 57.9331 16.14 57.9571 16.356C56.9971 16.5 56.0011 16.968 54.9691 17.76C53.9611 18.552 53.0371 19.512 52.1971 20.64C51.3811 21.744 50.7091 22.932 50.1811 24.204C49.6531 25.476 49.3891 26.664 49.3891 27.768C49.3891 28.224 49.5571 28.512 49.8931 28.632C50.5891 28.488 51.3931 27.9 52.3051 26.868C53.2171 25.812 54.3211 24.192 55.6171 22.008C55.8571 21.576 56.1211 21.096 56.4091 20.568C56.7211 20.04 57.0331 19.488 57.3451 18.912C57.6571 18.336 57.9571 17.76 58.2451 17.184C58.5571 16.584 58.8451 16.008 59.1091 15.456ZM66.4433 27.696C66.4433 26.64 66.6953 25.164 67.1993 23.268C67.7033 21.348 68.4113 19.116 69.3233 16.572C70.8113 12.516 72.2033 9.144 73.4993 6.456C74.8193 3.744 76.1033 1.632 77.3513 0.119998C77.6393 0.167998 77.9873 0.287998 78.3953 0.479998C78.8273 0.671999 79.2473 0.887999 79.6553 1.128C80.0633 1.344 80.4233 1.572 80.7353 1.812C81.0713 2.052 81.2873 2.244 81.3833 2.388C79.5113 4.596 77.8673 6.972 76.4513 9.516C75.0353 12.06 73.7393 14.976 72.5633 18.264C71.5553 21.096 70.7873 23.652 70.2593 25.932C69.7313 28.188 69.4673 30.072 69.4673 31.584C69.4673 31.992 69.4673 32.244 69.4673 32.34C69.4673 32.436 69.4793 32.532 69.5033 32.628C69.1673 32.58 68.8793 32.496 68.6393 32.376C68.3993 32.256 68.2433 32.112 68.1713 31.944C68.1233 31.824 67.9913 31.644 67.7753 31.404C67.5593 31.188 67.3673 31.02 67.1993 30.9C66.9833 30.756 66.8033 30.384 66.6593 29.784C66.5153 29.16 66.4433 28.464 66.4433 27.696ZM54.5969 70.552C55.2209 70.552 55.7129 70.768 56.0729 71.2C56.4329 71.632 56.6129 72.232 56.6129 73C56.6129 73.192 56.6009 73.396 56.5769 73.612C56.5529 73.804 56.5169 73.972 56.4689 74.116C55.9649 73.996 55.4129 73.924 54.8129 73.9C54.6689 74.956 54.2849 76.072 53.6609 77.248C53.0369 78.4 52.2809 79.492 51.3929 80.524C50.5049 81.532 49.5329 82.42 48.4769 83.188C47.4209 83.956 46.3769 84.472 45.3449 84.736C42.1289 84.664 39.7769 83.824 38.2889 82.216C36.8249 80.632 36.0929 78.148 36.0929 74.764C36.0929 72.292 36.5489 69.904 37.4609 67.6C38.3729 65.272 39.5849 63.208 41.0969 61.408C42.6089 59.608 44.3369 58.168 46.2809 57.088C48.2489 55.984 50.2889 55.432 52.4009 55.432C54.0569 55.432 55.3409 55.78 56.2529 56.476C57.1889 57.172 57.6569 58.156 57.6569 59.428C57.6569 60.268 57.4529 61.048 57.0449 61.768C56.6609 62.488 56.0129 63.268 55.1009 64.108C54.5489 63.94 54.0689 63.652 53.6609 63.244C53.2529 62.812 53.0009 62.32 52.9049 61.768C53.7209 61.168 54.2969 60.616 54.6329 60.112C54.9689 59.608 55.1369 59.008 55.1369 58.312C55.1369 57.208 54.4769 56.656 53.1569 56.656C52.0769 56.656 50.9129 57.064 49.6649 57.88C48.4409 58.672 47.2049 59.824 45.9569 61.336C44.1809 63.472 42.8849 65.68 42.0689 67.96C41.2529 70.216 40.8449 72.76 40.8449 75.592C40.8449 76.648 40.9529 77.608 41.1689 78.472C41.3849 79.336 41.6729 80.092 42.0329 80.74C42.3929 81.388 42.8129 81.904 43.2929 82.288C43.7969 82.672 44.3369 82.888 44.9129 82.936C45.6809 82.768 46.4489 82.384 47.2169 81.784C47.9849 81.16 48.6809 80.44 49.3049 79.624C49.9529 78.784 50.4929 77.896 50.9249 76.96C51.3809 76 51.6569 75.088 51.7529 74.224C51.0809 74.368 50.4329 74.512 49.8089 74.656C49.2089 74.776 48.6329 74.836 48.0809 74.836C47.3609 74.836 46.7249 74.656 46.1729 74.296C45.6449 73.936 45.2849 73.444 45.0929 72.82C45.5249 72.58 46.1489 72.328 46.9649 72.064C47.8049 71.8 48.6929 71.56 49.6289 71.344C50.5649 71.104 51.4769 70.912 52.3649 70.768C53.2769 70.624 54.0209 70.552 54.5969 70.552ZM73.6909 67.096C73.5949 68.584 73.3309 69.868 72.8989 70.948C72.4669 72.004 71.8429 72.94 71.0269 73.756C70.2349 74.548 69.2629 75.268 68.1109 75.916C66.9589 76.564 65.6149 77.188 64.0789 77.788C64.0789 77.932 64.0669 78.088 64.0429 78.256C64.0429 78.4 64.0429 78.556 64.0429 78.724C64.0429 79.036 64.0669 79.36 64.1149 79.696C64.1629 80.032 64.2469 80.344 64.3669 80.632C64.4869 80.92 64.6549 81.16 64.8709 81.352C65.0869 81.52 65.3629 81.604 65.6989 81.604C66.3469 81.604 66.9829 81.46 67.6069 81.172C68.2309 80.884 68.8189 80.536 69.3709 80.128C69.9469 79.696 70.4749 79.24 70.9549 78.76C71.4589 78.256 71.9029 77.8 72.2869 77.392C72.5269 77.608 72.7309 77.812 72.8989 78.004C71.8189 79.444 70.6309 80.644 69.3349 81.604C68.0629 82.54 66.8509 83.14 65.6989 83.404C64.0429 83.212 62.7469 82.612 61.8109 81.604C60.8989 80.572 60.4429 79.336 60.4429 77.896C60.4429 76.912 60.5749 75.916 60.8389 74.908C61.1269 73.876 61.5109 72.892 61.9909 71.956C62.4949 70.996 63.0709 70.096 63.7189 69.256C64.3909 68.416 65.0989 67.684 65.8429 67.06C66.6109 66.436 67.3909 65.944 68.1829 65.584C68.9989 65.224 69.8029 65.044 70.5949 65.044C71.6989 65.188 72.7309 65.872 73.6909 67.096ZM71.2069 68.284C70.5589 68.38 69.8869 68.644 69.1909 69.076C68.4949 69.508 67.8349 70.084 67.2109 70.804C66.6109 71.524 66.0589 72.364 65.5549 73.324C65.0509 74.284 64.6549 75.316 64.3669 76.42C66.2869 75.46 67.8829 74.284 69.1549 72.892C70.4269 71.476 71.1109 69.94 71.2069 68.284ZM80.1155 68.212C79.9955 68.068 79.8875 67.768 79.7915 67.312C79.6955 66.832 79.6475 66.424 79.6475 66.088C80.2715 66.136 80.8715 66.184 81.4475 66.232C82.0235 66.256 82.5515 66.28 83.0315 66.304C83.3915 65.584 83.7755 64.876 84.1835 64.18C84.6155 63.46 85.0235 62.812 85.4075 62.236C85.8155 61.636 86.1875 61.132 86.5235 60.724C86.8835 60.316 87.1595 60.052 87.3515 59.932C87.5915 59.932 87.8915 59.98 88.2515 60.076C88.6355 60.148 89.0195 60.256 89.4035 60.4C89.7875 60.52 90.1355 60.652 90.4475 60.796C90.7595 60.94 90.9755 61.084 91.0955 61.228C90.3755 62.14 89.7515 62.992 89.2235 63.784C88.7195 64.552 88.1675 65.44 87.5675 66.448C88.0475 66.448 88.5275 66.436 89.0075 66.412C89.5115 66.388 90.0155 66.352 90.5195 66.304C90.6395 66.424 90.7355 66.58 90.8075 66.772C90.8795 66.94 90.9155 67.12 90.9155 67.312C89.7395 67.744 88.3115 67.984 86.6315 68.032C86.0315 69.184 85.4915 70.336 85.0115 71.488C84.5555 72.616 84.1595 73.708 83.8235 74.764C83.5115 75.82 83.2595 76.816 83.0675 77.752C82.8995 78.688 82.8155 79.528 82.8155 80.272C82.8155 81.328 83.2115 81.916 84.0035 82.036C84.7235 81.94 85.4075 81.76 86.0555 81.496C86.7035 81.232 87.2795 80.896 87.7835 80.488C87.9275 80.704 88.0115 80.884 88.0355 81.028C87.8915 81.244 87.6395 81.496 87.2795 81.784C86.9435 82.072 86.5715 82.348 86.1635 82.612C85.7555 82.9 85.3595 83.14 84.9755 83.332C84.5915 83.524 84.3035 83.632 84.1115 83.656C83.5115 83.632 82.9115 83.5 82.3115 83.26C81.7115 83.02 81.1595 82.72 80.6555 82.36C80.1755 82 79.7795 81.604 79.4675 81.172C79.1555 80.716 78.9995 80.272 78.9995 79.84C78.9995 79.264 79.0715 78.544 79.2155 77.68C79.3835 76.792 79.6115 75.832 79.8995 74.8C80.1875 73.768 80.5235 72.688 80.9075 71.56C81.2915 70.432 81.7115 69.316 82.1675 68.212H80.1155ZM107.542 80.128C107.902 79.336 108.334 78.316 108.838 77.068C109.342 75.82 109.87 74.476 110.422 73.036C110.974 71.572 111.538 70.084 112.114 68.572C112.69 67.036 113.23 65.584 113.734 64.216C114.238 62.848 114.67 61.624 115.03 60.544C115.414 59.464 115.69 58.636 115.858 58.06C114.346 58.684 113.05 59.632 111.97 60.904C110.89 62.176 110.074 63.772 109.522 65.692C108.97 65.5 108.466 65.164 108.01 64.684C107.554 64.18 107.254 63.556 107.11 62.812C107.35 61.708 107.794 60.7 108.442 59.788C109.114 58.876 109.954 58.096 110.962 57.448C111.97 56.8 113.134 56.308 114.454 55.972C115.774 55.612 117.19 55.432 118.702 55.432C120.622 55.432 122.386 55.72 123.994 56.296C125.602 56.848 126.982 57.628 128.134 58.636C129.286 59.644 130.186 60.856 130.834 62.272C131.482 63.688 131.806 65.26 131.806 66.988C131.806 69.34 131.374 71.584 130.51 73.72C129.646 75.856 128.47 77.74 126.982 79.372C125.518 81.004 123.814 82.3 121.87 83.26C119.926 84.244 117.886 84.736 115.75 84.736C113.782 84.736 112.09 84.34 110.674 83.548C109.282 82.78 108.238 81.64 107.542 80.128ZM120.25 57.232C119.05 57.232 117.91 57.4 116.83 57.736C117.886 58.12 118.762 58.528 119.458 58.96C120.154 59.368 120.634 59.692 120.898 59.932C120.706 60.196 120.418 60.664 120.034 61.336C119.674 62.008 119.242 62.824 118.738 63.784C118.258 64.744 117.742 65.8 117.19 66.952C116.638 68.08 116.098 69.244 115.57 70.444C114.202 73.492 113.206 75.892 112.582 77.644C111.982 79.396 111.682 80.608 111.682 81.28C112.018 81.4 112.426 81.484 112.906 81.532C113.386 81.58 113.902 81.604 114.454 81.604C116.398 81.604 118.234 81.16 119.962 80.272C121.714 79.36 123.238 78.148 124.534 76.636C125.854 75.124 126.886 73.372 127.63 71.38C128.398 69.364 128.782 67.252 128.782 65.044C128.782 62.572 128.014 60.652 126.478 59.284C124.942 57.916 122.866 57.232 120.25 57.232ZM135.71 79.588C135.71 79.372 135.722 79.108 135.746 78.796C135.794 78.46 135.866 78.028 135.962 77.5C136.058 76.948 136.178 76.288 136.322 75.52C136.49 74.752 136.694 73.828 136.934 72.748C136.982 72.508 137.09 72.124 137.258 71.596C137.426 71.068 137.642 70.516 137.906 69.94C138.194 69.34 138.53 68.764 138.914 68.212C139.322 67.66 139.802 67.252 140.354 66.988C140.762 67.084 141.302 67.336 141.974 67.744C142.646 68.128 143.222 68.668 143.702 69.364C143.15 69.988 142.682 70.612 142.298 71.236C141.938 71.86 141.602 72.508 141.29 73.18C141.002 73.852 140.726 74.548 140.462 75.268C140.222 75.988 139.946 76.744 139.634 77.536C139.37 78.208 139.13 78.904 138.914 79.624C138.698 80.32 138.578 80.932 138.554 81.46C138.554 81.892 138.542 82.192 138.518 82.36C138.518 82.552 138.458 82.648 138.338 82.648C138.242 82.648 138.05 82.588 137.762 82.468C137.474 82.348 137.174 82.168 136.862 81.928C136.574 81.664 136.31 81.34 136.07 80.956C135.83 80.572 135.71 80.116 135.71 79.588ZM142.586 63.964C142.586 63.82 142.622 63.604 142.694 63.316C142.574 63.196 142.466 63.016 142.37 62.776C142.298 62.536 142.262 62.32 142.262 62.128C142.262 61.912 142.286 61.624 142.334 61.264C142.406 60.88 142.49 60.472 142.586 60.04C142.682 59.608 142.802 59.164 142.946 58.708C143.09 58.228 143.234 57.796 143.378 57.412C143.666 57.412 144.014 57.496 144.422 57.664C144.854 57.808 145.286 58.012 145.718 58.276C146.15 58.516 146.546 58.792 146.906 59.104C147.266 59.392 147.542 59.668 147.734 59.932C147.47 60.196 147.122 60.568 146.69 61.048C146.258 61.504 145.838 61.996 145.43 62.524C145.022 63.028 144.65 63.508 144.314 63.964C143.978 64.42 143.762 64.744 143.666 64.936C143.378 64.888 143.126 64.768 142.91 64.576C142.694 64.36 142.586 64.156 142.586 63.964ZM159.482 67.672C159.458 68.128 159.374 68.608 159.23 69.112C159.11 69.592 158.954 70.036 158.762 70.444C158.57 70.828 158.366 71.152 158.15 71.416C157.934 71.68 157.73 71.812 157.538 71.812C157.274 71.788 157.118 71.608 157.07 71.272C157.07 71.2 157.094 71.092 157.142 70.948C157.214 70.78 157.286 70.6 157.358 70.408C157.43 70.216 157.49 70.024 157.538 69.832C157.61 69.64 157.646 69.472 157.646 69.328C157.646 68.992 157.562 68.716 157.394 68.5C157.25 68.26 157.046 68.14 156.782 68.14C155.822 68.14 155.09 68.74 154.586 69.94C154.082 71.14 153.83 72.904 153.83 75.232C153.83 75.472 153.842 75.616 153.866 75.664C154.37 75.64 154.814 75.628 155.198 75.628C155.606 75.604 156.002 75.592 156.386 75.592C156.41 75.64 156.422 75.736 156.422 75.88C156.422 76.096 156.374 76.252 156.278 76.348C155.726 76.468 155.282 76.576 154.946 76.672C154.634 76.744 154.394 76.816 154.226 76.888C154.058 76.96 153.95 77.044 153.902 77.14C153.878 77.212 153.866 77.32 153.866 77.464C153.866 77.656 153.866 77.848 153.866 78.04C153.89 78.232 153.902 78.472 153.902 78.76C153.902 80.776 153.35 82.396 152.246 83.62C151.166 84.844 149.654 85.552 147.71 85.744C147.374 85.72 147.026 85.624 146.666 85.456C146.306 85.288 145.958 85.072 145.622 84.808C145.31 84.544 145.034 84.244 144.794 83.908C144.554 83.596 144.386 83.272 144.29 82.936C144.29 82.024 144.482 81.16 144.866 80.344C145.25 79.504 145.766 78.772 146.414 78.148C147.086 77.5 147.866 76.984 148.754 76.6C149.666 76.192 150.65 75.952 151.706 75.88C151.706 75.28 151.646 74.692 151.526 74.116C151.406 73.54 151.274 72.988 151.13 72.46C151.01 71.908 150.89 71.38 150.77 70.876C150.65 70.348 150.59 69.832 150.59 69.328C150.59 68.68 150.722 68.044 150.986 67.42C151.25 66.772 151.598 66.184 152.03 65.656C152.462 65.104 152.966 64.636 153.542 64.252C154.118 63.868 154.718 63.604 155.342 63.46C155.606 63.532 155.954 63.748 156.386 64.108C156.842 64.444 157.286 64.828 157.718 65.26C158.15 65.692 158.534 66.136 158.87 66.592C159.206 67.024 159.41 67.384 159.482 67.672ZM147.602 84.088C148.178 83.848 148.718 83.5 149.222 83.044C149.75 82.588 150.206 82.072 150.59 81.496C150.974 80.92 151.274 80.308 151.49 79.66C151.73 79.012 151.85 78.376 151.85 77.752C151.37 77.824 150.842 78.052 150.266 78.436C149.69 78.796 149.15 79.24 148.646 79.768C148.142 80.272 147.722 80.8 147.386 81.352C147.05 81.904 146.882 82.384 146.882 82.792C146.882 83.32 147.122 83.752 147.602 84.088ZM162.604 75.664C162.604 74.296 162.88 72.976 163.432 71.704C164.008 70.408 164.752 69.268 165.664 68.284C166.6 67.276 167.656 66.472 168.832 65.872C170.032 65.248 171.268 64.936 172.54 64.936C173.788 64.936 174.748 65.248 175.42 65.872C176.092 66.496 176.428 67.384 176.428 68.536C176.428 69.088 176.344 69.628 176.176 70.156C176.032 70.66 175.828 71.116 175.564 71.524C175.324 71.932 175.036 72.268 174.7 72.532C174.364 72.772 174.028 72.892 173.692 72.892C173.404 72.892 173.104 72.808 172.792 72.64C172.504 72.448 172.264 72.208 172.072 71.92C173.68 70.456 174.484 69.124 174.484 67.924C174.484 67.228 174.208 66.88 173.656 66.88C173.176 66.88 172.576 67.108 171.856 67.564C171.136 68.02 170.44 68.62 169.768 69.364C168.736 70.516 167.944 71.8 167.392 73.216C166.864 74.608 166.6 76.072 166.6 77.608C166.6 79.552 167.032 80.716 167.896 81.1C168.256 81.052 168.676 80.944 169.156 80.776C169.636 80.608 170.152 80.392 170.704 80.128C171.256 79.84 171.82 79.516 172.396 79.156C172.996 78.796 173.572 78.412 174.124 78.004C174.22 78.076 174.304 78.184 174.376 78.328C174.448 78.472 174.484 78.604 174.484 78.724C174.076 79.228 173.608 79.72 173.08 80.2C172.552 80.68 172 81.124 171.424 81.532C170.848 81.916 170.284 82.24 169.732 82.504C169.204 82.792 168.736 82.972 168.328 83.044C167.536 82.972 166.792 82.72 166.096 82.288C165.4 81.88 164.788 81.34 164.26 80.668C163.756 79.996 163.348 79.228 163.036 78.364C162.748 77.5 162.604 76.6 162.604 75.664ZM184.633 83.26C183.265 83.116 182.173 82.516 181.357 81.46C180.541 80.404 180.133 79.06 180.133 77.428C180.133 76.468 180.277 75.472 180.565 74.44C180.853 73.408 181.261 72.412 181.789 71.452C182.317 70.468 182.941 69.544 183.661 68.68C184.381 67.816 185.161 67.072 186.001 66.448C187.321 65.464 188.557 64.972 189.709 64.972C190.477 65.38 191.233 66.232 191.977 67.528C192.097 67.528 192.205 67.528 192.301 67.528C192.397 67.504 192.505 67.492 192.625 67.492C193.897 67.492 194.533 68.62 194.533 70.876C194.533 72.388 194.281 73.828 193.777 75.196C193.297 76.54 192.613 77.764 191.725 78.868C190.861 79.972 189.817 80.908 188.593 81.676C187.393 82.42 186.073 82.948 184.633 83.26ZM186.469 71.92C186.061 72.472 185.677 73.072 185.317 73.72C184.957 74.368 184.645 75.028 184.381 75.7C184.117 76.348 183.913 76.984 183.769 77.608C183.625 78.208 183.553 78.748 183.553 79.228C183.553 79.804 183.649 80.356 183.841 80.884C184.033 81.412 184.249 81.712 184.489 81.784C185.569 81.544 186.553 81.1 187.441 80.452C188.353 79.78 189.133 78.952 189.781 77.968C190.453 76.984 190.969 75.868 191.329 74.62C191.713 73.372 191.905 72.04 191.905 70.624C191.905 70 191.869 69.508 191.797 69.148C191.725 68.788 191.605 68.476 191.437 68.212C190.381 68.524 189.433 69.028 188.593 69.724C187.777 70.42 187.069 71.152 186.469 71.92ZM208.947 81.208C208.491 80.824 208.179 80.344 208.011 79.768C207.867 79.192 207.795 78.7 207.795 78.292C207.795 77.788 207.855 77.356 207.975 76.996C207.879 76.996 207.663 77.188 207.327 77.572C206.991 77.956 206.619 78.412 206.211 78.94C205.827 79.468 205.443 79.984 205.059 80.488C204.675 80.992 204.387 81.364 204.195 81.604C203.883 81.94 203.583 82.204 203.295 82.396C203.031 82.588 202.815 82.696 202.647 82.72C202.263 82.696 201.855 82.612 201.423 82.468C201.015 82.348 200.619 82.168 200.235 81.928C199.875 81.688 199.551 81.4 199.263 81.064C198.999 80.728 198.819 80.344 198.723 79.912C198.723 79.24 198.735 78.688 198.759 78.256C198.807 77.824 198.891 77.356 199.011 76.852C199.227 75.94 199.539 74.908 199.947 73.756C200.379 72.604 200.871 71.476 201.423 70.372C201.975 69.244 202.587 68.2 203.259 67.24C203.955 66.256 204.687 65.488 205.455 64.936C205.671 64.936 205.923 64.96 206.211 65.008C206.499 65.032 206.787 65.092 207.075 65.188C207.387 65.284 207.675 65.404 207.939 65.548C208.227 65.668 208.467 65.836 208.659 66.052C208.443 66.292 207.891 67.096 207.003 68.464C206.139 69.832 205.167 71.8 204.087 74.368C203.967 74.632 203.823 75.016 203.655 75.52C203.487 76.024 203.319 76.552 203.151 77.104C202.983 77.656 202.839 78.196 202.719 78.724C202.623 79.252 202.575 79.672 202.575 79.984C202.575 80.176 202.599 80.32 202.647 80.416C202.719 80.512 202.779 80.584 202.827 80.632C203.187 80.488 203.643 80.092 204.195 79.444C204.747 78.796 205.515 77.8 206.499 76.456C206.739 76.12 207.015 75.736 207.327 75.304C207.663 74.872 207.999 74.416 208.335 73.936C208.671 73.432 208.983 72.916 209.271 72.388C209.583 71.86 209.835 71.332 210.027 70.804C210.123 70.516 210.243 70.18 210.387 69.796C210.555 69.388 210.747 68.968 210.963 68.536C211.203 68.104 211.467 67.672 211.755 67.24C212.067 66.784 212.427 66.364 212.835 65.98C213.147 65.98 213.483 66.016 213.843 66.088C214.203 66.16 214.539 66.256 214.851 66.376C215.187 66.472 215.475 66.592 215.715 66.736C215.955 66.856 216.135 66.988 216.255 67.132C215.823 68.188 215.343 69.232 214.815 70.264C214.287 71.296 213.795 72.316 213.339 73.324C212.883 74.308 212.499 75.292 212.187 76.276C211.875 77.26 211.719 78.22 211.719 79.156C211.719 79.66 211.755 80.104 211.827 80.488C211.923 80.848 212.019 81.16 212.115 81.424C212.211 81.664 212.295 81.868 212.367 82.036C212.463 82.204 212.511 82.348 212.511 82.468C212.511 82.492 212.487 82.528 212.439 82.576C212.415 82.6 212.391 82.612 212.367 82.612C212.199 82.612 211.983 82.576 211.719 82.504C211.455 82.432 211.155 82.324 210.819 82.18C210.507 82.06 210.183 81.916 209.847 81.748C209.535 81.58 209.235 81.4 208.947 81.208ZM225.657 64.54C226.281 64.732 226.869 65.164 227.421 65.836C227.973 66.484 228.381 67.204 228.645 67.996C228.381 68.644 227.973 69.424 227.421 70.336C226.869 71.248 226.317 72.184 225.765 73.144C225.213 74.08 224.709 74.98 224.253 75.844C223.821 76.684 223.569 77.38 223.497 77.932C223.881 77.524 224.301 77.056 224.757 76.528C225.237 75.976 225.693 75.436 226.125 74.908C226.581 74.356 227.001 73.864 227.385 73.432C227.769 72.976 228.069 72.64 228.285 72.424C228.741 71.944 229.281 71.392 229.905 70.768C230.529 70.12 231.177 69.52 231.849 68.968C232.545 68.392 233.241 67.912 233.937 67.528C234.633 67.12 235.269 66.916 235.845 66.916C236.469 66.916 236.985 67.132 237.393 67.564C237.825 67.972 238.161 68.404 238.401 68.86C238.401 68.908 238.305 68.98 238.113 69.076C237.945 69.148 237.693 69.376 237.357 69.76C237.021 70.192 236.637 70.792 236.205 71.56C235.797 72.304 235.389 73.12 234.981 74.008C234.597 74.872 234.273 75.76 234.009 76.672C233.745 77.584 233.613 78.412 233.613 79.156C233.613 79.756 233.685 80.14 233.829 80.308C233.997 80.476 234.225 80.56 234.513 80.56C234.777 80.56 235.053 80.5 235.341 80.38C235.629 80.26 235.857 80.2 236.025 80.2C236.121 80.248 236.193 80.356 236.241 80.524C236.313 80.668 236.349 80.8 236.349 80.92C236.157 81.088 235.929 81.256 235.665 81.424C235.401 81.592 235.125 81.748 234.837 81.892C234.549 82.036 234.261 82.156 233.973 82.252C233.709 82.348 233.469 82.396 233.253 82.396C232.557 82.396 231.981 82.288 231.525 82.072C231.093 81.88 230.745 81.616 230.481 81.28C230.241 80.944 230.073 80.548 229.977 80.092C229.881 79.612 229.833 79.108 229.833 78.58C229.833 78.292 229.857 77.968 229.905 77.608C229.953 77.248 230.049 76.828 230.193 76.348C230.337 75.844 230.541 75.256 230.805 74.584C231.069 73.888 231.405 73.06 231.813 72.1C231.765 72.1 231.441 72.268 230.841 72.604C230.241 72.94 229.593 73.456 228.897 74.152C227.769 75.232 226.749 76.3 225.837 77.356C224.949 78.412 224.037 79.588 223.101 80.884C222.573 81.628 222.105 82.252 221.697 82.756C221.313 83.284 220.977 83.632 220.689 83.8C220.185 83.512 219.813 83.104 219.573 82.576C219.333 82.072 219.153 81.544 219.033 80.992C219.033 80.536 219.093 79.96 219.213 79.264C219.357 78.568 219.537 77.8 219.753 76.96C219.993 76.096 220.281 75.196 220.617 74.26C220.953 73.324 221.325 72.388 221.733 71.452C222.645 69.34 223.473 67.684 224.217 66.484C224.985 65.284 225.465 64.636 225.657 64.54ZM244.27 68.212C244.15 68.068 244.042 67.768 243.946 67.312C243.85 66.832 243.802 66.424 243.802 66.088C244.426 66.136 245.026 66.184 245.602 66.232C246.178 66.256 246.706 66.28 247.186 66.304C247.546 65.584 247.93 64.876 248.338 64.18C248.77 63.46 249.178 62.812 249.562 62.236C249.97 61.636 250.342 61.132 250.678 60.724C251.038 60.316 251.314 60.052 251.506 59.932C251.746 59.932 252.046 59.98 252.406 60.076C252.79 60.148 253.174 60.256 253.558 60.4C253.942 60.52 254.29 60.652 254.602 60.796C254.914 60.94 255.13 61.084 255.25 61.228C254.53 62.14 253.906 62.992 253.378 63.784C252.874 64.552 252.322 65.44 251.722 66.448C252.202 66.448 252.682 66.436 253.162 66.412C253.666 66.388 254.17 66.352 254.674 66.304C254.794 66.424 254.89 66.58 254.962 66.772C255.034 66.94 255.07 67.12 255.07 67.312C253.894 67.744 252.466 67.984 250.786 68.032C250.186 69.184 249.646 70.336 249.166 71.488C248.71 72.616 248.314 73.708 247.978 74.764C247.666 75.82 247.414 76.816 247.222 77.752C247.054 78.688 246.97 79.528 246.97 80.272C246.97 81.328 247.366 81.916 248.158 82.036C248.878 81.94 249.562 81.76 250.21 81.496C250.858 81.232 251.434 80.896 251.938 80.488C252.082 80.704 252.166 80.884 252.19 81.028C252.046 81.244 251.794 81.496 251.434 81.784C251.098 82.072 250.726 82.348 250.318 82.612C249.91 82.9 249.514 83.14 249.13 83.332C248.746 83.524 248.458 83.632 248.266 83.656C247.666 83.632 247.066 83.5 246.466 83.26C245.866 83.02 245.314 82.72 244.81 82.36C244.33 82 243.934 81.604 243.622 81.172C243.31 80.716 243.154 80.272 243.154 79.84C243.154 79.264 243.226 78.544 243.37 77.68C243.538 76.792 243.766 75.832 244.054 74.8C244.342 73.768 244.678 72.688 245.062 71.56C245.446 70.432 245.866 69.316 246.322 68.212H244.27ZM259.338 75.232C259.338 74.584 259.506 73.648 259.842 72.424C260.202 71.176 260.658 69.808 261.21 68.32C261.762 66.808 262.386 65.26 263.082 63.676C263.778 62.068 264.474 60.568 265.17 59.176C265.89 57.784 266.574 56.584 267.222 55.576C267.87 54.544 268.434 53.86 268.914 53.524C269.298 53.596 269.706 53.776 270.138 54.064C270.594 54.328 271.014 54.64 271.398 55C271.782 55.336 272.118 55.696 272.406 56.08C272.694 56.464 272.862 56.8 272.91 57.088C271.686 58.096 270.474 59.356 269.274 60.868C268.074 62.356 266.958 64.012 265.926 65.836C264.918 67.66 264.03 69.616 263.262 71.704C262.494 73.768 261.918 75.88 261.534 78.04C261.246 77.968 260.958 77.884 260.67 77.788C260.406 77.668 260.178 77.512 259.986 77.32C259.794 77.128 259.638 76.864 259.518 76.528C259.398 76.192 259.338 75.76 259.338 75.232ZM258.546 84.772C258.258 84.772 257.982 84.7 257.718 84.556C257.454 84.436 257.214 84.28 256.998 84.088C256.806 83.92 256.65 83.728 256.53 83.512C256.41 83.32 256.35 83.164 256.35 83.044C256.35 82.756 256.386 82.384 256.458 81.928C256.53 81.472 256.638 81.04 256.782 80.632C256.926 80.2 257.106 79.84 257.322 79.552C257.538 79.24 257.778 79.084 258.042 79.084C258.714 79.084 259.386 79.324 260.058 79.804C260.754 80.26 261.27 80.776 261.606 81.352C261.318 81.664 261.066 82.012 260.85 82.396C260.634 82.804 260.418 83.176 260.202 83.512C259.986 83.872 259.746 84.172 259.482 84.412C259.218 84.652 258.906 84.772 258.546 84.772Z" fill="#020F07"/>
<path d="M104.337 32.664C104.289 32.688 104.241 32.7 104.193 32.7C104.145 32.7 104.049 32.7 103.905 32.7C103.569 32.7 103.173 32.64 102.717 32.52C102.285 32.424 101.853 32.292 101.421 32.124C101.013 31.98 100.653 31.812 100.341 31.62C100.053 31.428 99.8732 31.26 99.8012 31.116C99.7772 30.78 99.7652 30.432 99.7652 30.072C99.7652 29.712 99.7652 29.364 99.7652 29.028C99.7652 26.34 99.9572 23.532 100.341 20.604C100.749 17.676 101.409 14.508 102.321 11.1C102.417 10.764 102.513 10.344 102.609 9.84C102.729 9.312 102.849 8.748 102.969 8.148C102.393 8.604 101.709 9.336 100.917 10.344C100.125 11.328 99.2852 12.504 98.3972 13.872C97.5332 15.216 96.6572 16.704 95.7692 18.336C94.9052 19.944 94.1132 21.588 93.3932 23.268C92.6732 24.924 92.0492 26.568 91.5212 28.2C91.0172 29.832 90.7052 31.344 90.5852 32.736C89.4332 32.4 88.6292 32.064 88.1732 31.728C87.7412 31.392 87.5252 30.984 87.5252 30.504C87.5252 30.072 87.6572 29.46 87.9212 28.668C88.1852 27.876 88.5572 26.94 89.0372 25.86C89.5172 24.78 90.1052 23.58 90.8012 22.26C91.4972 20.916 92.2652 19.476 93.1052 17.94C94.0652 16.188 95.0012 14.544 95.9132 13.008C96.8492 11.472 97.7612 10.08 98.6492 8.832C99.5372 7.584 100.401 6.504 101.241 5.592C102.105 4.68 102.957 3.984 103.797 3.504C104.133 3.504 104.577 3.588 105.129 3.756C105.705 3.924 106.257 4.128 106.785 4.368C107.337 4.608 107.817 4.86 108.225 5.124C108.657 5.364 108.897 5.568 108.945 5.736C108.609 6.408 108.213 7.416 107.757 8.76C107.301 10.104 106.833 11.628 106.353 13.332C105.897 15.036 105.453 16.848 105.021 18.768C104.613 20.664 104.289 22.488 104.049 24.24C104.601 22.92 105.237 21.552 105.957 20.136C106.701 18.696 107.481 17.28 108.297 15.888C109.113 14.472 109.941 13.104 110.781 11.784C111.645 10.464 112.485 9.264 113.301 8.184C114.117 7.08 114.873 6.12 115.569 5.304C116.289 4.488 116.925 3.888 117.477 3.504C117.813 3.504 118.257 3.588 118.809 3.756C119.385 3.924 119.937 4.128 120.465 4.368C121.017 4.608 121.497 4.86 121.905 5.124C122.337 5.364 122.577 5.568 122.625 5.736C121.857 7.104 121.185 8.772 120.609 10.74C120.033 12.708 119.541 14.772 119.133 16.932C118.749 19.092 118.449 21.24 118.233 23.376C118.041 25.488 117.945 27.384 117.945 29.064C117.945 29.616 117.945 30.192 117.945 30.792C117.945 31.392 117.969 32.016 118.017 32.664C117.681 32.664 117.273 32.616 116.793 32.52C116.337 32.448 115.881 32.34 115.425 32.196C114.993 32.052 114.597 31.884 114.237 31.692C113.877 31.524 113.625 31.332 113.481 31.116C113.457 30.78 113.445 30.432 113.445 30.072C113.445 29.712 113.445 29.364 113.445 29.028C113.445 26.34 113.637 23.532 114.021 20.604C114.429 17.676 115.089 14.508 116.001 11.1C116.097 10.764 116.205 10.308 116.325 9.732C116.445 9.156 116.565 8.556 116.685 7.932C116.013 8.268 115.245 8.916 114.381 9.876C113.541 10.812 112.677 11.964 111.789 13.332C110.925 14.676 110.061 16.176 109.197 17.832C108.357 19.488 107.589 21.18 106.893 22.908C106.221 24.612 105.645 26.316 105.165 28.02C104.709 29.7 104.433 31.248 104.337 32.664ZM138.035 15.096C137.939 16.584 137.675 17.868 137.243 18.948C136.811 20.004 136.187 20.94 135.371 21.756C134.579 22.548 133.607 23.268 132.455 23.916C131.303 24.564 129.959 25.188 128.423 25.788C128.423 25.932 128.411 26.088 128.387 26.256C128.387 26.4 128.387 26.556 128.387 26.724C128.387 27.036 128.411 27.36 128.459 27.696C128.507 28.032 128.591 28.344 128.711 28.632C128.831 28.92 128.999 29.16 129.215 29.352C129.431 29.52 129.707 29.604 130.043 29.604C130.691 29.604 131.327 29.46 131.951 29.172C132.575 28.884 133.163 28.536 133.715 28.128C134.291 27.696 134.819 27.24 135.299 26.76C135.803 26.256 136.247 25.8 136.631 25.392C136.871 25.608 137.075 25.812 137.243 26.004C136.163 27.444 134.975 28.644 133.679 29.604C132.407 30.54 131.195 31.14 130.043 31.404C128.387 31.212 127.091 30.612 126.155 29.604C125.243 28.572 124.787 27.336 124.787 25.896C124.787 24.912 124.919 23.916 125.183 22.908C125.471 21.876 125.855 20.892 126.335 19.956C126.839 18.996 127.415 18.096 128.063 17.256C128.735 16.416 129.443 15.684 130.187 15.06C130.955 14.436 131.735 13.944 132.527 13.584C133.343 13.224 134.147 13.044 134.939 13.044C136.043 13.188 137.075 13.872 138.035 15.096ZM135.551 16.284C134.903 16.38 134.231 16.644 133.535 17.076C132.839 17.508 132.179 18.084 131.555 18.804C130.955 19.524 130.403 20.364 129.899 21.324C129.395 22.284 128.999 23.316 128.711 24.42C130.631 23.46 132.227 22.284 133.499 20.892C134.771 19.476 135.455 17.94 135.551 16.284ZM163.389 18.948C163.005 18.972 162.537 19.224 161.985 19.704C161.433 20.16 160.833 20.76 160.185 21.504C159.561 22.224 158.901 23.028 158.205 23.916C157.533 24.804 156.873 25.692 156.225 26.58C155.601 27.444 155.013 28.26 154.461 29.028C153.909 29.796 153.441 30.408 153.057 30.864C152.529 30.648 152.073 30.336 151.689 29.928C151.305 29.496 151.029 28.968 150.861 28.344C150.981 27.6 151.149 26.832 151.365 26.04C151.581 25.224 151.857 24.384 152.193 23.52C152.553 22.656 152.985 21.756 153.489 20.82C154.017 19.86 154.653 18.852 155.397 17.796C155.037 17.82 154.545 18.084 153.921 18.588C153.297 19.068 152.625 19.704 151.905 20.496C151.185 21.264 150.441 22.14 149.673 23.124C148.905 24.084 148.185 25.032 147.513 25.968C146.625 27.216 145.881 28.308 145.281 29.244C144.705 30.18 144.285 30.732 144.021 30.9C143.397 30.444 142.965 29.952 142.725 29.424C142.485 28.896 142.305 28.308 142.185 27.66C142.209 27.084 142.293 26.364 142.437 25.5C142.605 24.636 142.833 23.748 143.121 22.836C143.673 21.084 144.381 19.344 145.245 17.616C146.133 15.888 146.985 14.304 147.801 12.864C148.473 13.008 149.073 13.236 149.601 13.548C150.153 13.86 150.729 14.316 151.329 14.916C151.089 15.66 150.717 16.452 150.213 17.292C149.709 18.108 149.181 18.972 148.629 19.884C148.077 20.796 147.573 21.732 147.117 22.692C146.661 23.652 146.361 24.624 146.217 25.608C146.889 24.648 147.681 23.544 148.593 22.296C149.529 21.048 150.477 19.872 151.437 18.768C152.421 17.664 153.393 16.728 154.353 15.96C155.313 15.192 156.177 14.808 156.945 14.808C157.233 14.808 157.545 14.856 157.881 14.952C158.217 15.048 158.529 15.168 158.817 15.312C159.105 15.456 159.345 15.6 159.537 15.744C159.729 15.864 159.837 15.96 159.861 16.032C159.741 16.512 159.453 17.172 158.997 18.012C158.565 18.828 158.097 19.692 157.593 20.604C157.089 21.516 156.621 22.404 156.189 23.268C155.757 24.108 155.505 24.78 155.433 25.284C156.609 23.676 157.713 22.224 158.745 20.928C159.777 19.608 160.749 18.48 161.661 17.544C162.573 16.608 163.413 15.888 164.181 15.384C164.973 14.88 165.717 14.628 166.413 14.628C166.893 14.628 167.337 14.76 167.745 15.024C168.177 15.264 168.477 15.624 168.645 16.104C168.429 16.824 168.069 17.688 167.565 18.696C167.085 19.704 166.593 20.772 166.089 21.9C165.585 23.004 165.129 24.096 164.721 25.176C164.337 26.256 164.145 27.228 164.145 28.092C164.145 28.596 164.217 28.932 164.361 29.1C164.505 29.244 164.709 29.316 164.973 29.316C165.261 29.316 165.525 29.268 165.765 29.172C166.029 29.052 166.221 28.992 166.341 28.992C166.485 29.088 166.569 29.208 166.593 29.352C166.617 29.496 166.629 29.628 166.629 29.748C166.149 30.132 165.657 30.444 165.153 30.684C164.649 30.948 164.085 31.08 163.461 31.08C162.885 31.08 162.405 30.984 162.021 30.792C161.661 30.6 161.361 30.336 161.121 30C160.881 29.664 160.713 29.28 160.617 28.848C160.521 28.416 160.473 27.948 160.473 27.444C160.473 26.628 160.581 25.824 160.797 25.032C161.013 24.216 161.265 23.448 161.553 22.728C161.865 21.984 162.189 21.3 162.525 20.676C162.861 20.028 163.149 19.452 163.389 18.948ZM176.16 30.252C177.264 29.508 178.344 28.56 179.4 27.408C180.456 26.232 181.416 24.972 182.28 23.628C183.144 22.26 183.876 20.844 184.476 19.38C185.076 17.916 185.484 16.512 185.7 15.168C185.7 14.88 185.544 14.688 185.232 14.592C184.896 14.592 184.428 14.892 183.828 15.492C183.252 16.068 182.604 16.812 181.884 17.724C181.188 18.636 180.468 19.656 179.724 20.784C179.004 21.912 178.344 23.04 177.744 24.168C177.144 25.272 176.628 26.316 176.196 27.3C175.788 28.26 175.56 29.04 175.512 29.64C175.272 29.64 175.068 29.4 174.9 28.92C174.852 28.8 174.768 28.68 174.648 28.56C174.528 28.416 174.336 28.248 174.072 28.056C173.952 27.96 173.832 27.852 173.712 27.732C173.592 27.588 173.508 27.468 173.46 27.372C173.364 27.18 173.316 26.868 173.316 26.436C173.316 25.02 173.496 23.424 173.856 21.648C174.216 19.872 174.684 18.06 175.26 16.212C175.86 14.364 176.556 12.552 177.348 10.776C178.14 8.976 178.956 7.332 179.796 5.844C180.66 4.356 181.524 3.096 182.388 2.064C183.252 1.032 184.068 0.347998 184.836 0.0119977C185.076 0.0839982 185.364 0.203999 185.7 0.372C186.036 0.539999 186.372 0.731998 186.708 0.947999C187.044 1.164 187.356 1.38 187.644 1.596C187.956 1.812 188.184 2.004 188.328 2.172C185.688 4.308 183.396 7.056 181.452 10.416C179.532 13.752 177.96 17.7 176.736 22.26C177.408 21.012 178.164 19.812 179.004 18.66C179.844 17.484 180.672 16.452 181.488 15.564C182.328 14.676 183.12 13.968 183.864 13.44C184.632 12.912 185.268 12.648 185.772 12.648C186.156 12.744 186.528 12.912 186.888 13.152C187.248 13.392 187.572 13.692 187.86 14.052C188.148 14.388 188.388 14.76 188.58 15.168C188.772 15.552 188.892 15.96 188.94 16.392C188.916 17.4 188.736 18.48 188.4 19.632C188.088 20.76 187.656 21.876 187.104 22.98C186.576 24.084 185.964 25.14 185.268 26.148C184.596 27.156 183.876 28.044 183.108 28.812C182.364 29.556 181.608 30.156 180.84 30.612C180.096 31.068 179.388 31.296 178.716 31.296C178.428 31.296 178.128 31.26 177.816 31.188C177.528 31.14 177.252 31.056 176.988 30.936C176.748 30.84 176.544 30.732 176.376 30.612C176.232 30.492 176.16 30.372 176.16 30.252ZM205.596 15.096C205.5 16.584 205.236 17.868 204.804 18.948C204.372 20.004 203.748 20.94 202.932 21.756C202.14 22.548 201.168 23.268 200.016 23.916C198.864 24.564 197.52 25.188 195.984 25.788C195.984 25.932 195.972 26.088 195.948 26.256C195.948 26.4 195.948 26.556 195.948 26.724C195.948 27.036 195.972 27.36 196.02 27.696C196.068 28.032 196.152 28.344 196.272 28.632C196.392 28.92 196.56 29.16 196.776 29.352C196.992 29.52 197.268 29.604 197.604 29.604C198.252 29.604 198.888 29.46 199.512 29.172C200.136 28.884 200.724 28.536 201.276 28.128C201.852 27.696 202.38 27.24 202.86 26.76C203.364 26.256 203.808 25.8 204.192 25.392C204.432 25.608 204.636 25.812 204.804 26.004C203.724 27.444 202.536 28.644 201.24 29.604C199.968 30.54 198.756 31.14 197.604 31.404C195.948 31.212 194.652 30.612 193.716 29.604C192.804 28.572 192.348 27.336 192.348 25.896C192.348 24.912 192.48 23.916 192.744 22.908C193.032 21.876 193.416 20.892 193.896 19.956C194.4 18.996 194.976 18.096 195.624 17.256C196.296 16.416 197.004 15.684 197.748 15.06C198.516 14.436 199.296 13.944 200.088 13.584C200.904 13.224 201.708 13.044 202.5 13.044C203.604 13.188 204.636 13.872 205.596 15.096ZM203.112 16.284C202.464 16.38 201.792 16.644 201.096 17.076C200.4 17.508 199.74 18.084 199.116 18.804C198.516 19.524 197.964 20.364 197.46 21.324C196.956 22.284 196.56 23.316 196.272 24.42C198.192 23.46 199.788 22.284 201.06 20.892C202.332 19.476 203.016 17.94 203.112 16.284ZM209.279 29.28C209.399 28.584 209.603 27.672 209.891 26.544C210.203 25.392 210.563 24.18 210.971 22.908C211.379 21.612 211.811 20.316 212.267 19.02C212.723 17.724 213.167 16.56 213.599 15.528C213.911 14.784 214.187 14.208 214.427 13.8C214.667 13.368 214.931 13.008 215.219 12.72C215.555 12.768 215.903 12.852 216.263 12.972C216.623 13.092 216.971 13.236 217.307 13.404C217.643 13.572 217.943 13.752 218.207 13.944C218.471 14.112 218.675 14.28 218.819 14.448C218.171 15.216 217.595 16.092 217.091 17.076C216.611 18.06 216.119 19.32 215.615 20.856C216.911 19.704 218.051 18.6 219.035 17.544C220.043 16.488 220.979 15.312 221.843 14.016C221.987 13.896 222.239 13.836 222.599 13.836C222.935 13.836 223.259 13.896 223.571 14.016C223.883 14.112 224.099 14.256 224.219 14.448C223.787 15.6 223.571 16.74 223.571 17.868C223.571 18.924 223.727 19.716 224.039 20.244C224.015 20.388 223.847 20.664 223.535 21.072C223.247 21.48 222.923 21.864 222.563 22.224C221.915 21.888 221.339 21.432 220.835 20.856C220.331 20.256 219.959 19.608 219.719 18.912C218.591 19.704 217.631 20.484 216.839 21.252C216.047 21.996 215.363 22.836 214.787 23.772C214.235 24.684 213.755 25.74 213.347 26.94C212.963 28.14 212.591 29.568 212.231 31.224C212.015 31.2 211.751 31.116 211.439 30.972C211.151 30.852 210.851 30.696 210.539 30.504C210.251 30.312 209.987 30.108 209.747 29.892C209.507 29.676 209.351 29.472 209.279 29.28ZM239.4 15.672C239.376 16.128 239.292 16.608 239.148 17.112C239.028 17.592 238.872 18.036 238.68 18.444C238.488 18.828 238.284 19.152 238.068 19.416C237.852 19.68 237.648 19.812 237.456 19.812C237.192 19.788 237.036 19.608 236.988 19.272C236.988 19.2 237.012 19.092 237.06 18.948C237.132 18.78 237.204 18.6 237.276 18.408C237.348 18.216 237.408 18.024 237.456 17.832C237.528 17.64 237.564 17.472 237.564 17.328C237.564 16.992 237.48 16.716 237.312 16.5C237.168 16.26 236.964 16.14 236.7 16.14C235.74 16.14 235.008 16.74 234.504 17.94C234 19.14 233.748 20.904 233.748 23.232C233.748 23.472 233.76 23.616 233.784 23.664C234.288 23.64 234.732 23.628 235.116 23.628C235.524 23.604 235.92 23.592 236.304 23.592C236.328 23.64 236.34 23.736 236.34 23.88C236.34 24.096 236.292 24.252 236.196 24.348C235.644 24.468 235.2 24.576 234.864 24.672C234.552 24.744 234.312 24.816 234.144 24.888C233.976 24.96 233.868 25.044 233.82 25.14C233.796 25.212 233.784 25.32 233.784 25.464C233.784 25.656 233.784 25.848 233.784 26.04C233.808 26.232 233.82 26.472 233.82 26.76C233.82 28.776 233.268 30.396 232.164 31.62C231.084 32.844 229.572 33.552 227.628 33.744C227.292 33.72 226.944 33.624 226.584 33.456C226.224 33.288 225.876 33.072 225.54 32.808C225.228 32.544 224.952 32.244 224.712 31.908C224.472 31.596 224.304 31.272 224.208 30.936C224.208 30.024 224.4 29.16 224.784 28.344C225.168 27.504 225.684 26.772 226.332 26.148C227.004 25.5 227.784 24.984 228.672 24.6C229.584 24.192 230.568 23.952 231.624 23.88C231.624 23.28 231.564 22.692 231.444 22.116C231.324 21.54 231.192 20.988 231.048 20.46C230.928 19.908 230.808 19.38 230.688 18.876C230.568 18.348 230.508 17.832 230.508 17.328C230.508 16.68 230.64 16.044 230.904 15.42C231.168 14.772 231.516 14.184 231.948 13.656C232.38 13.104 232.884 12.636 233.46 12.252C234.036 11.868 234.636 11.604 235.26 11.46C235.524 11.532 235.872 11.748 236.304 12.108C236.76 12.444 237.204 12.828 237.636 13.26C238.068 13.692 238.452 14.136 238.788 14.592C239.124 15.024 239.328 15.384 239.4 15.672ZM227.52 32.088C228.096 31.848 228.636 31.5 229.14 31.044C229.668 30.588 230.124 30.072 230.508 29.496C230.892 28.92 231.192 28.308 231.408 27.66C231.648 27.012 231.768 26.376 231.768 25.752C231.288 25.824 230.76 26.052 230.184 26.436C229.608 26.796 229.068 27.24 228.564 27.768C228.06 28.272 227.64 28.8 227.304 29.352C226.968 29.904 226.8 30.384 226.8 30.792C226.8 31.32 227.04 31.752 227.52 32.088ZM242.27 29.388C242.27 28.548 242.354 27.564 242.522 26.436C242.69 25.284 242.93 24.06 243.242 22.764C243.578 21.468 243.962 20.112 244.394 18.696C244.85 17.28 245.354 15.864 245.906 14.448C246.386 13.176 246.938 11.892 247.562 10.596C248.21 9.3 248.906 8.028 249.65 6.78C250.394 5.532 251.162 4.344 251.954 3.216C252.77 2.088 253.586 1.056 254.402 0.119998C254.786 0.119998 255.194 0.167999 255.626 0.263999C256.082 0.359999 256.514 0.491999 256.922 0.659998C257.354 0.803999 257.738 0.983999 258.074 1.2C258.434 1.416 258.722 1.632 258.938 1.848C257.138 3.696 255.518 5.568 254.078 7.464C252.638 9.336 251.498 11.1 250.658 12.756C250.202 13.668 249.782 14.52 249.398 15.312C249.038 16.104 248.702 16.896 248.39 17.688C248.078 18.456 247.79 19.236 247.526 20.028C247.286 20.796 247.058 21.612 246.842 22.476C251.45 16.596 254.87 13.656 257.102 13.656C257.726 13.656 258.398 13.86 259.118 14.268C259.838 14.676 260.474 15.228 261.026 15.924C260.282 16.74 259.514 17.724 258.722 18.876C257.93 20.028 257.198 21.192 256.526 22.368C255.878 23.52 255.338 24.6 254.906 25.608C254.498 26.592 254.294 27.324 254.294 27.804C254.294 28.044 254.33 28.212 254.402 28.308C254.474 28.38 254.63 28.416 254.87 28.416C255.23 28.416 255.518 28.368 255.734 28.272C255.95 28.176 256.082 28.128 256.13 28.128C256.25 28.32 256.322 28.452 256.346 28.524C256.37 28.596 256.382 28.656 256.382 28.704C256.382 28.8 256.238 28.944 255.95 29.136C255.662 29.304 255.314 29.484 254.906 29.676C254.522 29.844 254.138 30 253.754 30.144C253.37 30.288 253.082 30.36 252.89 30.36C252.65 30.36 252.41 30.288 252.17 30.144C251.93 30.024 251.714 29.856 251.522 29.64C251.354 29.424 251.21 29.184 251.09 28.92C250.994 28.656 250.946 28.38 250.946 28.092C250.946 27.732 251.042 27.204 251.234 26.508C251.45 25.788 251.738 24.96 252.098 24.024C252.458 23.064 252.89 22.02 253.394 20.892C253.898 19.764 254.438 18.612 255.014 17.436C255.014 17.34 254.966 17.292 254.87 17.292C254.798 17.292 254.606 17.388 254.294 17.58C254.006 17.772 253.73 17.964 253.466 18.156C252.602 18.804 251.726 19.608 250.838 20.568C249.974 21.504 249.122 22.536 248.282 23.664C247.466 24.792 246.686 25.992 245.942 27.264C245.222 28.512 244.598 29.772 244.07 31.044C243.998 31.212 243.89 31.368 243.746 31.512C243.602 31.656 243.482 31.728 243.386 31.728C243.314 31.728 243.206 31.644 243.062 31.476C242.942 31.308 242.822 31.092 242.702 30.828C242.606 30.588 242.51 30.336 242.414 30.072C242.318 29.808 242.27 29.58 242.27 29.388ZM263.819 27.588C263.819 27.372 263.831 27.108 263.855 26.796C263.903 26.46 263.975 26.028 264.071 25.5C264.167 24.948 264.287 24.288 264.431 23.52C264.599 22.752 264.803 21.828 265.043 20.748C265.091 20.508 265.199 20.124 265.367 19.596C265.535 19.068 265.751 18.516 266.015 17.94C266.303 17.34 266.639 16.764 267.023 16.212C267.431 15.66 267.911 15.252 268.463 14.988C268.871 15.084 269.411 15.336 270.083 15.744C270.755 16.128 271.331 16.668 271.811 17.364C271.259 17.988 270.791 18.612 270.407 19.236C270.047 19.86 269.711 20.508 269.399 21.18C269.111 21.852 268.835 22.548 268.571 23.268C268.331 23.988 268.055 24.744 267.743 25.536C267.479 26.208 267.239 26.904 267.023 27.624C266.807 28.32 266.687 28.932 266.663 29.46C266.663 29.892 266.651 30.192 266.627 30.36C266.627 30.552 266.567 30.648 266.447 30.648C266.351 30.648 266.159 30.588 265.871 30.468C265.583 30.348 265.283 30.168 264.971 29.928C264.683 29.664 264.419 29.34 264.179 28.956C263.939 28.572 263.819 28.116 263.819 27.588ZM270.695 11.964C270.695 11.82 270.731 11.604 270.803 11.316C270.683 11.196 270.575 11.016 270.479 10.776C270.407 10.536 270.371 10.32 270.371 10.128C270.371 9.912 270.395 9.624 270.443 9.264C270.515 8.88 270.599 8.472 270.695 8.04C270.791 7.608 270.911 7.164 271.055 6.708C271.199 6.228 271.343 5.796 271.487 5.412C271.775 5.412 272.123 5.496 272.531 5.664C272.963 5.808 273.395 6.012 273.827 6.276C274.259 6.516 274.655 6.792 275.015 7.104C275.375 7.392 275.651 7.668 275.843 7.932C275.579 8.196 275.231 8.568 274.799 9.048C274.367 9.504 273.947 9.996 273.539 10.524C273.131 11.028 272.759 11.508 272.423 11.964C272.087 12.42 271.871 12.744 271.775 12.936C271.487 12.888 271.235 12.768 271.019 12.576C270.803 12.36 270.695 12.156 270.695 11.964ZM272.543 41.916C272.207 41.82 272.015 41.46 271.967 40.836C271.871 40.524 271.799 40.152 271.751 39.72C271.727 39.288 271.715 38.796 271.715 38.244C271.715 37.74 271.799 37.044 271.967 36.156C272.135 35.292 272.363 34.308 272.651 33.204C272.963 32.1 273.335 30.912 273.767 29.64C274.199 28.344 274.679 27.036 275.207 25.716C275.855 24.06 276.419 22.632 276.899 21.432C277.379 20.208 277.775 19.152 278.087 18.264C278.423 17.376 278.687 16.644 278.879 16.068C279.095 15.492 279.263 15 279.383 14.592C279.479 14.304 279.623 13.956 279.815 13.548C280.007 13.14 280.223 12.732 280.463 12.324C280.727 11.892 280.991 11.496 281.255 11.136C281.519 10.752 281.759 10.464 281.975 10.272C282.815 10.392 283.607 10.608 284.351 10.92C285.095 11.232 285.551 11.532 285.719 11.82C285.383 12.132 284.999 12.624 284.567 13.296C284.135 13.944 283.715 14.664 283.307 15.456C282.899 16.224 282.527 17.016 282.191 17.832C281.855 18.648 281.603 19.368 281.435 19.992C281.675 19.584 281.987 19.14 282.371 18.66C282.755 18.18 283.343 17.52 284.135 16.68C285.023 15.768 285.851 15.072 286.619 14.592C287.411 14.088 288.095 13.836 288.671 13.836C289.583 13.836 290.327 14.088 290.903 14.592C291.503 15.096 291.803 15.744 291.803 16.536C291.803 18.264 291.515 19.98 290.939 21.684C290.363 23.364 289.535 24.888 288.455 26.256C288.047 26.784 287.567 27.288 287.015 27.768C286.463 28.248 285.887 28.68 285.287 29.064C284.687 29.424 284.099 29.712 283.523 29.928C282.947 30.144 282.431 30.252 281.975 30.252C281.543 30.252 281.159 30.168 280.823 30C280.511 29.808 280.295 29.58 280.175 29.316C281.111 28.764 282.023 27.996 282.911 27.012C283.799 26.028 284.615 24.9 285.359 23.628C286.127 22.332 286.787 20.94 287.339 19.452C287.915 17.964 288.347 16.452 288.635 14.916C287.723 15.396 286.895 15.924 286.151 16.5C285.431 17.052 284.711 17.784 283.991 18.696C283.127 19.752 282.443 20.604 281.939 21.252C281.435 21.9 281.015 22.452 280.679 22.908C280.367 23.364 280.103 23.796 279.887 24.204C279.695 24.588 279.479 25.068 279.239 25.644C278.903 26.412 278.507 27.432 278.051 28.704C277.619 29.952 277.163 31.356 276.683 32.916C276.227 34.476 275.759 36.132 275.279 37.884C274.823 39.66 274.379 41.424 273.947 43.176C273.683 43.128 273.455 42.936 273.263 42.6C273.071 42.384 272.927 42.228 272.831 42.132C272.759 42.036 272.663 41.964 272.543 41.916ZM293.101 36.084C292.957 35.964 292.825 35.76 292.705 35.472C292.585 35.208 292.525 34.956 292.525 34.716C293.725 33.684 294.577 32.7 295.081 31.764C295.609 30.828 295.873 29.808 295.873 28.704C295.873 27.984 295.837 27.372 295.765 26.868C295.717 26.34 295.609 25.74 295.441 25.068C296.041 25.116 296.629 25.224 297.205 25.392C297.805 25.536 298.333 25.728 298.789 25.968C299.269 26.184 299.665 26.448 299.977 26.76C300.289 27.048 300.481 27.336 300.553 27.624C299.425 31.608 296.941 34.428 293.101 36.084Z" fill="#159947"/>
</svg>
