<svg width="21" height="20" viewBox="0 0 21 20" fill="none" xmlns="http://www.w3.org/2000/svg">
<path d="M10.4997 18.9584C15.4413 18.9584 19.458 14.9417 19.458 10C19.458 5.05835 15.4413 1.04169 10.4997 1.04169C5.55801 1.04169 1.54134 5.05835 1.54134 10C1.54134 14.9417 5.55801 18.9584 10.4997 18.9584ZM10.4997 2.29169C14.7497 2.29169 18.208 5.75002 18.208 10C18.208 14.25 14.7497 17.7084 10.4997 17.7084C6.24967 17.7084 2.79134 14.25 2.79134 10C2.79134 5.75002 6.24967 2.29169 10.4997 2.29169Z" fill="#020F07"/>
<path d="M7.58301 10.625H12.583C12.9247 10.625 13.208 10.3417 13.208 10C13.208 9.65833 12.9247 9.375 12.583 9.375H7.58301C7.24134 9.375 6.95801 9.65833 6.95801 10C6.95801 10.3417 7.24134 10.625 7.58301 10.625Z" fill="#020F07"/>
<path d="M10.9171 13.125C11.0755 13.125 11.2338 13.0667 11.3588 12.9417L13.8588 10.4417C14.1005 10.2 14.1005 9.79999 13.8588 9.55832L11.3588 7.05833C11.1171 6.81666 10.7171 6.81666 10.4755 7.05833C10.2338 7.29999 10.2338 7.69999 10.4755 7.94166L12.5338 9.99999L10.4755 12.0583C10.2338 12.3 10.2338 12.7 10.4755 12.9417C10.6005 13.0667 10.7588 13.125 10.9171 13.125Z" fill="#020F07"/>
</svg>
