<svg width="21" height="20" viewBox="0 0 21 20" fill="none" xmlns="http://www.w3.org/2000/svg">
<path d="M10.5003 18.9584C5.55866 18.9584 1.54199 14.9417 1.54199 10C1.54199 5.05835 5.55866 1.04169 10.5003 1.04169C15.442 1.04169 19.4587 5.05835 19.4587 10C19.4587 14.9417 15.442 18.9584 10.5003 18.9584ZM10.5003 2.29169C6.25033 2.29169 2.79199 5.75002 2.79199 10C2.79199 14.25 6.25033 17.7084 10.5003 17.7084C14.7503 17.7084 18.2087 14.25 18.2087 10C18.2087 5.75002 14.7503 2.29169 10.5003 2.29169Z" fill="#C0C3C1"/>
<path d="M13.417 10.625H8.41699C8.07533 10.625 7.79199 10.3417 7.79199 10C7.79199 9.65833 8.07533 9.375 8.41699 9.375H13.417C13.7587 9.375 14.042 9.65833 14.042 10C14.042 10.3417 13.7587 10.625 13.417 10.625Z" fill="#C0C3C1"/>
<path d="M10.0829 13.125C9.92454 13.125 9.76621 13.0667 9.64121 12.9417L7.14121 10.4417C6.89954 10.2 6.89954 9.79999 7.14121 9.55832L9.64121 7.05833C9.88288 6.81666 10.2829 6.81666 10.5245 7.05833C10.7662 7.29999 10.7662 7.69999 10.5245 7.94166L8.46621 9.99999L10.5245 12.0583C10.7662 12.3 10.7662 12.7 10.5245 12.9417C10.3995 13.0667 10.2412 13.125 10.0829 13.125Z" fill="#C0C3C1"/>
</svg>
