<svg width="20" height="20" viewBox="0 0 20 20" fill="none" xmlns="http://www.w3.org/2000/svg">
<path d="M10.0003 18.9584C5.05866 18.9584 1.04199 14.9417 1.04199 10C1.04199 5.05835 5.05866 1.04169 10.0003 1.04169C14.942 1.04169 18.9587 5.05835 18.9587 10C18.9587 14.9417 14.942 18.9584 10.0003 18.9584ZM10.0003 2.29169C5.75033 2.29169 2.29199 5.75002 2.29199 10C2.29199 14.25 5.75033 17.7084 10.0003 17.7084C14.2503 17.7084 17.7087 14.25 17.7087 10C17.7087 5.75002 14.2503 2.29169 10.0003 2.29169Z" fill="#020F07"/>
<path d="M12.917 10.625H7.91699C7.57533 10.625 7.29199 10.3417 7.29199 10C7.29199 9.65833 7.57533 9.375 7.91699 9.375H12.917C13.2587 9.375 13.542 9.65833 13.542 10C13.542 10.3417 13.2587 10.625 12.917 10.625Z" fill="#020F07"/>
<path d="M9.58288 13.125C9.42454 13.125 9.26621 13.0667 9.14121 12.9417L6.64121 10.4417C6.39954 10.2 6.39954 9.79999 6.64121 9.55832L9.14121 7.05833C9.38288 6.81666 9.78288 6.81666 10.0245 7.05833C10.2662 7.29999 10.2662 7.69999 10.0245 7.94166L7.96621 9.99999L10.0245 12.0583C10.2662 12.3 10.2662 12.7 10.0245 12.9417C9.89954 13.0667 9.74121 13.125 9.58288 13.125Z" fill="#020F07"/>
</svg>
