<svg width="20" height="20" viewBox="0 0 20 20" fill="none" xmlns="http://www.w3.org/2000/svg">
<path d="M9.99967 18.9584C14.9413 18.9584 18.958 14.9417 18.958 10C18.958 5.05835 14.9413 1.04169 9.99967 1.04169C5.05801 1.04169 1.04134 5.05835 1.04134 10C1.04134 14.9417 5.05801 18.9584 9.99967 18.9584ZM9.99967 2.29169C14.2497 2.29169 17.708 5.75002 17.708 10C17.708 14.25 14.2497 17.7084 9.99967 17.7084C5.74967 17.7084 2.29134 14.25 2.29134 10C2.29134 5.75002 5.74967 2.29169 9.99967 2.29169Z" fill="#C0C3C1"/>
<path d="M7.08301 10.625H12.083C12.4247 10.625 12.708 10.3417 12.708 10C12.708 9.65833 12.4247 9.375 12.083 9.375H7.08301C6.74134 9.375 6.45801 9.65833 6.45801 10C6.45801 10.3417 6.74134 10.625 7.08301 10.625Z" fill="#C0C3C1"/>
<path d="M10.4171 13.125C10.5755 13.125 10.7338 13.0667 10.8588 12.9417L13.3588 10.4417C13.6005 10.2 13.6005 9.79999 13.3588 9.55832L10.8588 7.05833C10.6171 6.81666 10.2171 6.81666 9.97546 7.05833C9.73379 7.29999 9.73379 7.69999 9.97546 7.94166L12.0338 9.99999L9.97546 12.0583C9.73379 12.3 9.73379 12.7 9.97546 12.9417C10.1005 13.0667 10.2588 13.125 10.4171 13.125Z" fill="#C0C3C1"/>
</svg>
