<svg width="20" height="20" viewBox="0 0 20 20" fill="none" xmlns="http://www.w3.org/2000/svg">
<path d="M18.3334 14.5833H1.66669" stroke="#020F07" stroke-width="1.25" stroke-linecap="round" stroke-linejoin="round"/>
<path d="M18.3334 17.5V13.3333C18.3334 11.762 18.3334 10.9763 17.8452 10.4882C17.357 10 16.5714 10 15 10H5.00002C3.42867 10 2.643 10 2.15485 10.4882C1.66669 10.9763 1.66669 11.762 1.66669 13.3333V17.5" stroke="#020F07" stroke-width="1.25" stroke-linecap="round" stroke-linejoin="round"/>
<path d="M9.16667 10V8.51117C9.16667 8.19393 9.119 8.08784 8.87475 7.96282C8.36625 7.70243 7.74887 7.5 7.08333 7.5C6.41779 7.5 5.80046 7.70243 5.29187 7.96282C5.04767 8.08784 5 8.19393 5 8.51117V10" stroke="#020F07" stroke-width="1.25" stroke-linecap="round"/>
<path d="M15 10V8.51117C15 8.19393 14.9523 8.08784 14.7081 7.96282C14.1996 7.70243 13.5822 7.5 12.9166 7.5C12.2511 7.5 11.6337 7.70243 11.1252 7.96282C10.881 8.08784 10.8333 8.19393 10.8333 8.51117V10" stroke="#020F07" stroke-width="1.25" stroke-linecap="round"/>
<path d="M17.5 10V6.13381C17.5 5.55744 17.5 5.26926 17.3399 4.99711C17.1797 4.72496 16.9517 4.58409 16.4953 4.30236C14.6557 3.16648 12.4161 2.5 10 2.5C7.58389 2.5 5.34428 3.16648 3.50465 4.30236C3.04837 4.58409 2.82023 4.72496 2.66011 4.99711C2.5 5.26926 2.5 5.55744 2.5 6.13381V10" stroke="#020F07" stroke-width="1.25" stroke-linecap="round"/>
</svg>
