<svg width="20" height="20" viewBox="0 0 20 20" fill="none" xmlns="http://www.w3.org/2000/svg">
<path d="M4.16699 8.33329H5.83366C7.50032 8.33329 8.33366 7.49996 8.33366 5.83329V4.16663C8.33366 2.49996 7.50032 1.66663 5.83366 1.66663H4.16699C2.50033 1.66663 1.66699 2.49996 1.66699 4.16663V5.83329C1.66699 7.49996 2.50033 8.33329 4.16699 8.33329Z" stroke="#808783" stroke-width="1.5" stroke-miterlimit="10" stroke-linecap="round" stroke-linejoin="round"/>
<path d="M14.167 8.33329H15.8337C17.5003 8.33329 18.3337 7.49996 18.3337 5.83329V4.16663C18.3337 2.49996 17.5003 1.66663 15.8337 1.66663H14.167C12.5003 1.66663 11.667 2.49996 11.667 4.16663V5.83329C11.667 7.49996 12.5003 8.33329 14.167 8.33329Z" stroke="#808783" stroke-width="1.5" stroke-miterlimit="10" stroke-linecap="round" stroke-linejoin="round"/>
<path d="M14.167 18.3333H15.8337C17.5003 18.3333 18.3337 17.5 18.3337 15.8333V14.1666C18.3337 12.5 17.5003 11.6666 15.8337 11.6666H14.167C12.5003 11.6666 11.667 12.5 11.667 14.1666V15.8333C11.667 17.5 12.5003 18.3333 14.167 18.3333Z" stroke="#808783" stroke-width="1.5" stroke-miterlimit="10" stroke-linecap="round" stroke-linejoin="round"/>
<path d="M4.16699 18.3333H5.83366C7.50032 18.3333 8.33366 17.5 8.33366 15.8333V14.1666C8.33366 12.5 7.50032 11.6666 5.83366 11.6666H4.16699C2.50033 11.6666 1.66699 12.5 1.66699 14.1666V15.8333C1.66699 17.5 2.50033 18.3333 4.16699 18.3333Z" stroke="#808783" stroke-width="1.5" stroke-miterlimit="10" stroke-linecap="round" stroke-linejoin="round"/>
</svg>
