<svg width="21" height="21" viewBox="0 0 21 21" fill="none" xmlns="http://www.w3.org/2000/svg">
<g clip-path="url(#clip0_10_12160)">
<path d="M10.4883 0.327087C4.76362 0.327087 0.327148 4.51091 0.327148 10.162C0.327148 13.1177 1.54174 15.672 3.51877 17.4364C3.86013 17.7435 3.78982 17.9213 3.84787 19.817C3.85244 19.9498 3.88943 20.0794 3.95561 20.1946C4.0218 20.3098 4.11516 20.4071 4.22756 20.4779C4.33997 20.5487 4.468 20.591 4.60048 20.601C4.73297 20.611 4.86589 20.5884 4.98765 20.5353C7.15069 19.5827 7.17849 19.5075 7.5452 19.6072C13.8119 21.332 20.6044 17.3216 20.6044 10.162C20.6044 4.51091 16.2133 0.327087 10.4883 0.327087ZM16.5894 7.89549L13.6051 12.6202C13.4924 12.7978 13.3442 12.9503 13.1698 13.068C12.9955 13.1858 12.7986 13.2662 12.5917 13.3043C12.3848 13.3424 12.1723 13.3374 11.9674 13.2895C11.7625 13.2416 11.5698 13.152 11.4011 13.0261L9.02675 11.249C8.9206 11.1694 8.7915 11.1264 8.65881 11.1264C8.52613 11.1264 8.39703 11.1694 8.29088 11.249L5.08699 13.679C4.65937 14.0032 4.09929 13.491 4.38751 13.0384L7.37186 8.31371C7.48452 8.136 7.63267 7.98349 7.80704 7.86573C7.98141 7.74797 8.17823 7.66751 8.38516 7.62939C8.59209 7.59128 8.80466 7.59633 9.00955 7.64423C9.21443 7.69213 9.40721 7.78185 9.57579 7.90776L11.9494 9.68447C12.0555 9.76408 12.1846 9.80712 12.3173 9.80712C12.45 9.80712 12.5791 9.76408 12.6852 9.68447L15.8908 7.25692C16.3176 6.93069 16.8776 7.44253 16.5894 7.89549Z" fill="white"/>
</g>
<defs>
<clipPath id="clip0_10_12160">
<rect width="20.9314" height="20.9314" fill="white"/>
</clipPath>
</defs>
</svg>
