<svg width="48" height="48" viewBox="0 0 48 48" fill="none" xmlns="http://www.w3.org/2000/svg">
<rect width="48" height="48" rx="8" fill="#159947"/>
<path d="M14.98 23.92C14.98 22.7067 15.1947 21.5213 15.624 20.364C16.0533 19.188 16.6787 18.124 17.5 17.172C18.34 16.2013 19.3573 15.436 20.552 14.876C21.7467 14.2973 23.1 14.008 24.612 14.008C26.404 14.008 27.9533 14.4187 29.26 15.24C30.5667 16.0427 31.5373 17.0787 32.172 18.348L29.708 20C29.3347 19.1973 28.8587 18.5627 28.28 18.096C27.72 17.6293 27.104 17.3027 26.432 17.116C25.7787 16.9293 25.1347 16.836 24.5 16.836C23.4547 16.836 22.54 17.0507 21.756 17.48C20.972 17.8907 20.3093 18.4413 19.768 19.132C19.2453 19.8227 18.844 20.5973 18.564 21.456C18.3027 22.3147 18.172 23.1733 18.172 24.032C18.172 24.984 18.3307 25.908 18.648 26.804C18.9653 27.6813 19.404 28.4653 19.964 29.156C20.5427 29.828 21.224 30.36 22.008 30.752C22.792 31.144 23.6507 31.34 24.584 31.34C25.2187 31.34 25.8813 31.228 26.572 31.004C27.2627 30.78 27.8973 30.4347 28.476 29.968C29.0733 29.4827 29.54 28.848 29.876 28.064L32.48 29.548C32.0693 30.5373 31.4253 31.3773 30.548 32.068C29.6893 32.7587 28.7187 33.2813 27.636 33.636C26.572 33.9907 25.5173 34.168 24.472 34.168C23.072 34.168 21.7933 33.8787 20.636 33.3C19.4787 32.7027 18.48 31.9187 17.64 30.948C16.8 29.9587 16.1467 28.8573 15.68 27.644C15.2133 26.412 14.98 25.1707 14.98 23.92Z" fill="white"/>
</svg>
