<svg width="14" height="14" viewBox="0 0 14 14" fill="none" xmlns="http://www.w3.org/2000/svg">
<path d="M5.51535 6.04777C5.54948 5.82252 5.62456 5.62456 5.72013 5.45392C5.81569 5.28327 5.95221 5.13992 6.12286 5.03071C6.28668 4.92832 6.49146 4.88054 6.74402 4.87371C6.90101 4.88054 7.04436 4.90784 7.17405 4.96245C7.31057 5.02388 7.43343 5.10579 7.529 5.20818C7.62456 5.31057 7.69965 5.43344 7.76108 5.56996C7.82251 5.70648 7.84982 5.85665 7.85664 6.00682H9.07848C9.06483 5.686 9.0034 5.39248 8.88736 5.12627C8.77132 4.86006 8.61432 4.62798 8.40954 4.43685C8.20476 4.24573 7.95903 4.09556 7.67234 3.98634C7.38565 3.87713 7.07166 3.82935 6.72354 3.82935C6.27985 3.82935 5.89078 3.90443 5.56313 4.06143C5.23549 4.21842 4.96245 4.4232 4.74402 4.68941C4.52559 4.95562 4.36177 5.26279 4.25938 5.61774C4.15699 5.97269 4.09556 6.34129 4.09556 6.73719V6.92149C4.09556 7.31739 4.15016 7.68599 4.25255 8.04094C4.35494 8.39589 4.51876 8.70306 4.73719 8.96244C4.95562 9.22183 5.22866 9.43343 5.55631 9.5836C5.88395 9.73377 6.27303 9.81568 6.71671 9.81568C7.03753 9.81568 7.33787 9.76108 7.61773 9.65869C7.8976 9.5563 8.14333 9.41295 8.35493 9.22865C8.56654 9.04435 8.73719 8.83275 8.86005 8.58702C8.98292 8.34128 9.05801 8.0819 9.06483 7.80204H7.84299C7.83616 7.94538 7.80204 8.07507 7.7406 8.19794C7.67917 8.32081 7.59726 8.42319 7.49487 8.51193C7.39248 8.60067 7.27644 8.66893 7.13992 8.71671C7.01023 8.76449 6.87371 8.77814 6.73036 8.78497C6.48463 8.77814 6.27985 8.73036 6.12286 8.62797C5.95221 8.51876 5.81569 8.37541 5.72013 8.20477C5.62456 8.03412 5.54948 7.82934 5.51535 7.60408C5.48122 7.37883 5.46074 7.14675 5.46074 6.92149V6.73719C5.46074 6.49828 5.48122 6.27303 5.51535 6.04777ZM6.82593 0C3.05802 0 0 3.05802 0 6.82593C0 10.5938 3.05802 13.6519 6.82593 13.6519C10.5938 13.6519 13.6519 10.5938 13.6519 6.82593C13.6519 3.05802 10.5938 0 6.82593 0ZM6.82593 12.2867C3.81569 12.2867 1.36519 9.83616 1.36519 6.82593C1.36519 3.81569 3.81569 1.36519 6.82593 1.36519C9.83616 1.36519 12.2867 3.81569 12.2867 6.82593C12.2867 9.83616 9.83616 12.2867 6.82593 12.2867Z" fill="white"/>
</svg>
