<svg width="20" height="20" viewBox="0 0 20 20" fill="none" xmlns="http://www.w3.org/2000/svg">
<path d="M15.8917 11.8668C15.65 12.1084 15.2667 12.1084 15.0333 11.8668C14.7917 11.6251 14.7917 11.2418 15.0333 11.0084C16.7 9.34177 16.7 6.63344 15.0333 4.9751C13.3667 3.31677 10.6583 3.30844 8.99998 4.9751C7.34165 6.64177 7.33332 9.3501 8.99998 11.0084C9.24165 11.2501 9.24165 11.6334 8.99998 11.8668C8.75832 12.1084 8.37498 12.1084 8.14165 11.8668C5.99998 9.7251 5.99998 6.24177 8.14165 4.10844C10.2833 1.9751 13.7667 1.96677 15.9 4.10844C18.0333 6.2501 18.0333 9.7251 15.8917 11.8668Z" fill="#808783"/>
<path d="M4.10833 8.13334C4.35 7.89167 4.73333 7.89167 4.96666 8.13334C5.20833 8.375 5.20833 8.75834 4.96666 8.99167C3.3 10.6583 3.3 13.3667 4.96666 15.025C6.63333 16.6833 9.34166 16.6917 11 15.025C12.6583 13.3583 12.6667 10.65 11 8.99167C10.7583 8.75 10.7583 8.36667 11 8.13334C11.2417 7.89167 11.625 7.89167 11.8583 8.13334C14 10.275 14 13.7583 11.8583 15.8917C9.71666 18.025 6.23333 18.0333 4.1 15.8917C1.96666 13.75 1.96666 10.275 4.10833 8.13334Z" fill="#808783"/>
</svg>
