<svg width="21" height="21" viewBox="0 0 21 21" fill="none" xmlns="http://www.w3.org/2000/svg">
<path d="M13.835 4.91667L13.2661 3.74311C12.8882 2.96355 12.6993 2.57377 12.3734 2.33068C12.301 2.27675 12.2245 2.22878 12.1444 2.18725C11.7835 2 11.3504 2 10.484 2C9.59594 2 9.15186 2 8.78498 2.1951C8.70366 2.23834 8.62607 2.28825 8.55299 2.34431C8.22327 2.59725 8.0391 3.00129 7.67075 3.80938L7.16602 4.91667" stroke="#F02E25" stroke-width="1.5" stroke-linecap="round"/>
<path d="M18 4.91663H3" stroke="#F02E25" stroke-width="1.5" stroke-linecap="round"/>
<path d="M16.75 4.91663L16.2336 13.2709C16.1016 15.4053 16.0357 16.4725 15.5007 17.2399C15.2361 17.6192 14.8956 17.9394 14.5006 18.18C13.7017 18.6666 12.6325 18.6666 10.4939 18.6666C8.3526 18.6666 7.28192 18.6666 6.48254 18.179C6.08733 17.938 5.74667 17.6173 5.48223 17.2373C4.9474 16.4688 4.88287 15.4 4.75384 13.2626L4.25 4.91663" stroke="#F02E25" stroke-width="1.5" stroke-linecap="round"/>
<path d="M8.3125 14.2083V9.04163" stroke="#F02E25" stroke-width="1.5" stroke-linecap="round"/>
<path d="M12.6875 14.2083V9.04163" stroke="#F02E25" stroke-width="1.5" stroke-linecap="round"/>
</svg>
