<svg width="33" height="32" viewBox="0 0 33 32" fill="none" xmlns="http://www.w3.org/2000/svg">
<rect x="0.926758" width="32" height="32" rx="16" fill="white"/>
<path d="M22.0923 17.8576V21.6271H19.9071V18.1103C19.9071 17.2272 19.5917 16.6242 18.7999 16.6242C18.1965 16.6242 17.8371 17.0302 17.679 17.4233C17.6214 17.5638 17.6068 17.7589 17.6068 17.9559V21.6269H15.4216C15.4216 21.6269 15.4509 15.6706 15.4216 15.0541H17.6068V15.9855C17.6022 15.9929 17.5967 16 17.5921 16.007H17.6068V15.9855C17.8975 15.5386 18.415 14.8997 19.5761 14.8997C21.0143 14.8997 22.0923 15.8392 22.0923 17.8576ZM13.1349 11.8857C12.3871 11.8857 11.8979 12.3765 11.8979 13.0212C11.8979 13.6523 12.3734 14.1572 13.1067 14.1572H13.1203C13.8828 14.1572 14.3565 13.6523 14.3565 13.0212C14.3419 12.3765 13.8828 11.8857 13.1349 11.8857ZM12.0277 21.6271H14.2129V15.0541H12.0277V21.6271Z" fill="#159947"/>
</svg>
