<svg width="19" height="21" viewBox="0 0 19 21" fill="none" xmlns="http://www.w3.org/2000/svg">
<path d="M0.98 9.92C0.98 8.70667 1.19467 7.52133 1.624 6.364C2.05333 5.188 2.67867 4.124 3.5 3.172C4.34 2.20133 5.35733 1.436 6.552 0.875999C7.74667 0.297332 9.1 0.0079987 10.612 0.0079987C12.404 0.0079987 13.9533 0.418666 15.26 1.24C16.5667 2.04267 17.5373 3.07867 18.172 4.348L15.708 6C15.3347 5.19733 14.8587 4.56267 14.28 4.096C13.72 3.62933 13.104 3.30267 12.432 3.116C11.7787 2.92933 11.1347 2.836 10.5 2.836C9.45467 2.836 8.54 3.05067 7.756 3.48C6.972 3.89067 6.30933 4.44133 5.768 5.132C5.24533 5.82267 4.844 6.59733 4.564 7.456C4.30267 8.31467 4.172 9.17333 4.172 10.032C4.172 10.984 4.33067 11.908 4.648 12.804C4.96533 13.6813 5.404 14.4653 5.964 15.156C6.54267 15.828 7.224 16.36 8.008 16.752C8.792 17.144 9.65067 17.34 10.584 17.34C11.2187 17.34 11.8813 17.228 12.572 17.004C13.2627 16.78 13.8973 16.4347 14.476 15.968C15.0733 15.4827 15.54 14.848 15.876 14.064L18.48 15.548C18.0693 16.5373 17.4253 17.3773 16.548 18.068C15.6893 18.7587 14.7187 19.2813 13.636 19.636C12.572 19.9907 11.5173 20.168 10.472 20.168C9.072 20.168 7.79333 19.8787 6.636 19.3C5.47867 18.7027 4.48 17.9187 3.64 16.948C2.8 15.9587 2.14667 14.8573 1.68 13.644C1.21333 12.412 0.98 11.1707 0.98 9.92Z" fill="white"/>
</svg>
