<svg width="16" height="16" viewBox="0 0 16 16" fill="none" xmlns="http://www.w3.org/2000/svg">
<path d="M2 4.66602H4" stroke="white" stroke-width="1.5" stroke-linecap="round" stroke-linejoin="round"/>
<path d="M2 11.334H6" stroke="white" stroke-width="1.5" stroke-linecap="round" stroke-linejoin="round"/>
<path d="M12 11.334H14" stroke="white" stroke-width="1.5" stroke-linecap="round" stroke-linejoin="round"/>
<path d="M10 4.66602H14" stroke="white" stroke-width="1.5" stroke-linecap="round" stroke-linejoin="round"/>
<path d="M4 4.66602C4 4.04476 4 3.73414 4.10149 3.4891C4.23682 3.1624 4.49639 2.90284 4.82309 2.76751C5.06812 2.66602 5.37875 2.66602 6 2.66602C6.62125 2.66602 6.93187 2.66602 7.17693 2.76751C7.5036 2.90284 7.7632 3.1624 7.89853 3.4891C8 3.73414 8 4.04476 8 4.66602C8 5.28727 8 5.5979 7.89853 5.84293C7.7632 6.16963 7.5036 6.4292 7.17693 6.56452C6.93187 6.66602 6.62125 6.66602 6 6.66602C5.37875 6.66602 5.06812 6.66602 4.82309 6.56452C4.49639 6.4292 4.23682 6.16963 4.10149 5.84293C4 5.5979 4 5.28727 4 4.66602Z" stroke="white" stroke-width="1.5"/>
<path d="M8 11.334C8 10.7127 8 10.4021 8.10147 10.1571C8.2368 9.83038 8.4964 9.57078 8.82307 9.43545C9.06813 9.33398 9.37873 9.33398 10 9.33398C10.6213 9.33398 10.9319 9.33398 11.1769 9.43545C11.5036 9.57078 11.7632 9.83038 11.8985 10.1571C12 10.4021 12 10.7127 12 11.334C12 11.9553 12 12.2659 11.8985 12.5109C11.7632 12.8376 11.5036 13.0972 11.1769 13.2325C10.9319 13.334 10.6213 13.334 10 13.334C9.37873 13.334 9.06813 13.334 8.82307 13.2325C8.4964 13.0972 8.2368 12.8376 8.10147 12.5109C8 12.2659 8 11.9553 8 11.334Z" stroke="white" stroke-width="1.5"/>
</svg>
