<svg width="21" height="21" viewBox="0 0 21 21" fill="none" xmlns="http://www.w3.org/2000/svg">
<path d="M10.8392 18.8333C15.4416 18.8333 19.1725 15.1023 19.1725 10.5C19.1725 5.89759 15.4416 2.16663 10.8392 2.16663C6.23682 2.16663 2.50586 5.89759 2.50586 10.5C2.50586 15.1023 6.23682 18.8333 10.8392 18.8333Z" stroke="#020F07" stroke-width="1.5" stroke-linecap="round" stroke-linejoin="round"/>
<path d="M7.50602 3H8.33936C6.71436 7.86667 6.71436 13.1333 8.33936 18H7.50602" stroke="#020F07" stroke-width="1.5" stroke-linecap="round" stroke-linejoin="round"/>
<path d="M13.3394 3C14.9644 7.86667 14.9644 13.1333 13.3394 18" stroke="#020F07" stroke-width="1.5" stroke-linecap="round" stroke-linejoin="round"/>
<path d="M3.33936 13.8333V13C8.20602 14.625 13.4727 14.625 18.3394 13V13.8333" stroke="#020F07" stroke-width="1.5" stroke-linecap="round" stroke-linejoin="round"/>
<path d="M3.33936 8C8.20602 6.375 13.4727 6.375 18.3394 8" stroke="#020F07" stroke-width="1.5" stroke-linecap="round" stroke-linejoin="round"/>
</svg>
