<svg width="41" height="40" viewBox="0 0 41 40" fill="none" xmlns="http://www.w3.org/2000/svg">
<rect x="0.5" width="40" height="40" rx="20" fill="#159947" fill-opacity="0.15"/>
<path d="M13.0537 16.2582C13.747 14.8775 14.8106 13.7169 16.1257 12.9061C17.4407 12.0952 18.9554 11.666 20.5003 11.6665C22.7462 11.6665 24.6328 12.4923 26.0753 13.8373L23.6862 16.2273C22.822 15.4015 21.7237 14.9807 20.5003 14.9807C18.3295 14.9807 16.492 16.4473 15.8378 18.4165C15.6712 18.9165 15.5762 19.4498 15.5762 19.9998C15.5762 20.5498 15.6712 21.0832 15.8378 21.5832C16.4928 23.5532 18.3295 25.019 20.5003 25.019C21.6212 25.019 22.5753 24.7232 23.322 24.2232C23.7549 23.9382 24.1254 23.5684 24.4113 23.1361C24.6972 22.7038 24.8925 22.218 24.9853 21.7082H20.5003V18.4848H28.3487C28.447 19.0298 28.5003 19.5982 28.5003 20.189C28.5003 22.7273 27.592 24.864 26.0153 26.314C24.637 27.5873 22.7503 28.3332 20.5003 28.3332C19.4059 28.3336 18.322 28.1184 17.3108 27.6997C16.2995 27.2811 15.3807 26.6673 14.6068 25.8934C13.8329 25.1195 13.2191 24.2006 12.8004 23.1894C12.3818 22.1781 12.1666 21.0943 12.167 19.9998C12.167 18.6548 12.4887 17.3832 13.0537 16.2582Z" fill="#159947"/>
</svg>
