<svg width="18" height="22" viewBox="0 0 18 22" fill="none" xmlns="http://www.w3.org/2000/svg">
<g id="Group 330">
<path id="Vector" d="M10.8729 19.9452C9.62118 21.3434 7.66848 21.3599 6.40475 19.9452M8.63907 2.53845C4.3505 2.53845 2.48715 6.42175 2.48715 8.98881C2.48715 10.9074 2.76531 10.3428 1.7033 12.6833C0.406414 16.0185 5.6216 17.3817 8.63907 17.3817C11.6556 17.3817 16.8708 16.0185 15.5748 12.6833C14.5128 10.3428 14.791 10.9074 14.791 8.98881C14.791 6.42175 12.9267 2.53845 8.63907 2.53845Z" stroke="#020F07" stroke-width="1.5" stroke-linecap="round" stroke-linejoin="round"/>
<path id="Vector_2" d="M11.499 11C14.2604 11 16.499 8.76144 16.499 6.00001C16.499 3.23858 14.2604 1 11.499 1C8.73763 1 6.49902 3.23858 6.49902 6.00001C6.49902 8.76144 8.73763 11 11.499 11Z" fill="#DD3409" stroke="#F2F3F3" stroke-width="1.05"/>
</g>
</svg>
