<svg width="20" height="20" viewBox="0 0 20 20" fill="none" xmlns="http://www.w3.org/2000/svg">
<path d="M16.6663 8.33329C16.6663 6.56518 15.964 4.86949 14.7137 3.61925C13.4635 2.36901 11.7678 1.66663 9.99967 1.66663C8.23156 1.66663 6.53587 2.36901 5.28563 3.61925C4.03539 4.86949 3.33301 6.56518 3.33301 8.33329" stroke="#020F07" stroke-width="1.25" stroke-linecap="round" stroke-linejoin="round"/>
<path d="M16.6665 14.1667V14.5833C16.6665 15.0254 16.4909 15.4493 16.1783 15.7618C15.8658 16.0744 15.4419 16.25 14.9998 16.25H12.0832M1.6665 12.0317V10.4683C1.66656 10.0967 1.79084 9.7357 2.01959 9.44277C2.24834 9.14985 2.56844 8.94179 2.929 8.85166L4.379 8.48833C4.45268 8.46998 4.52958 8.46865 4.60385 8.48445C4.67812 8.50024 4.74781 8.53275 4.80765 8.57949C4.86749 8.62624 4.91589 8.68599 4.94919 8.75423C4.98249 8.82247 4.99981 8.8974 4.99984 8.97333V13.5258C4.99997 13.6019 4.98273 13.677 4.94944 13.7455C4.91615 13.8139 4.86768 13.8738 4.80772 13.9207C4.74777 13.9675 4.67791 14.0001 4.60347 14.0158C4.52903 14.0316 4.45197 14.0302 4.37817 14.0117L2.92817 13.6492C2.56776 13.5589 2.24785 13.3508 2.01926 13.0578C1.79067 12.7649 1.66651 12.404 1.6665 12.0325V12.0317ZM18.3332 12.0317V10.4683C18.3331 10.0967 18.2088 9.7357 17.9801 9.44277C17.7513 9.14985 17.4312 8.94179 17.0707 8.85166L15.6207 8.48833C15.547 8.46998 15.4701 8.46865 15.3958 8.48445C15.3216 8.50024 15.2519 8.53275 15.192 8.57949C15.1322 8.62624 15.0838 8.68599 15.0505 8.75423C15.0172 8.82247 14.9999 8.8974 14.9998 8.97333V13.5258C14.9997 13.6018 15.017 13.6769 15.0502 13.7452C15.0835 13.8135 15.1318 13.8734 15.1917 13.9202C15.2516 13.9671 15.3213 13.9997 15.3956 14.0155C15.47 14.0313 15.5469 14.03 15.6207 14.0117L17.0707 13.6492C17.4312 13.559 17.7513 13.351 17.9801 13.0581C18.2088 12.7651 18.3331 12.4042 18.3332 12.0325V12.0317Z" stroke="#020F07" stroke-width="1.25"/>
<path d="M11.25 17.5H8.75C8.41848 17.5 8.10054 17.3683 7.86612 17.1339C7.6317 16.8995 7.5 16.5815 7.5 16.25C7.5 15.9185 7.6317 15.6005 7.86612 15.3661C8.10054 15.1317 8.41848 15 8.75 15H11.25C11.5815 15 11.8995 15.1317 12.1339 15.3661C12.3683 15.6005 12.5 15.9185 12.5 16.25C12.5 16.5815 12.3683 16.8995 12.1339 17.1339C11.8995 17.3683 11.5815 17.5 11.25 17.5Z" stroke="#020F07" stroke-width="1.25"/>
</svg>
