<svg width="21" height="20" viewBox="0 0 21 20" fill="none" xmlns="http://www.w3.org/2000/svg">
<path d="M12.9993 18.9582H7.99935C3.47435 18.9582 1.54102 17.0248 1.54102 12.4998V7.49984C1.54102 2.97484 3.47435 1.0415 7.99935 1.0415H12.9993C17.5243 1.0415 19.4577 2.97484 19.4577 7.49984V12.4998C19.4577 17.0248 17.5243 18.9582 12.9993 18.9582ZM7.99935 2.2915C4.15768 2.2915 2.79102 3.65817 2.79102 7.49984V12.4998C2.79102 16.3415 4.15768 17.7082 7.99935 17.7082H12.9993C16.841 17.7082 18.2077 16.3415 18.2077 12.4998V7.49984C18.2077 3.65817 16.841 2.2915 12.9993 2.2915H7.99935Z" fill="#E6E7E6"/>
<path d="M8.00065 8.95833C6.73398 8.95833 5.70898 7.93333 5.70898 6.66667C5.70898 5.4 6.73398 4.375 8.00065 4.375C9.26732 4.375 10.2923 5.4 10.2923 6.66667C10.2923 7.93333 9.26732 8.95833 8.00065 8.95833ZM8.00065 5.625C7.42565 5.625 6.95898 6.09167 6.95898 6.66667C6.95898 7.24167 7.42565 7.70833 8.00065 7.70833C8.57565 7.70833 9.04232 7.24167 9.04232 6.66667C9.04232 6.09167 8.57565 5.625 8.00065 5.625Z" fill="#E6E7E6"/>
<path d="M2.72595 16.4168C2.52595 16.4168 2.32595 16.3168 2.20928 16.1418C2.01762 15.8585 2.09262 15.4668 2.38428 15.2751L6.49262 12.5168C7.39262 11.9085 8.63428 11.9835 9.45095 12.6751L9.72595 12.9168C10.1426 13.2751 10.8509 13.2751 11.2593 12.9168L14.7259 9.9418C15.6093 9.18346 17.0009 9.18346 17.8926 9.9418L19.2509 11.1085C19.5093 11.3335 19.5426 11.7251 19.3176 11.9918C19.0926 12.2501 18.701 12.2835 18.4343 12.0585L17.0759 10.8918C16.6593 10.5335 15.9509 10.5335 15.5343 10.8918L12.0676 13.8668C11.1843 14.6251 9.79262 14.6251 8.90095 13.8668L8.62595 13.6251C8.24262 13.3001 7.60928 13.2668 7.18428 13.5585L3.07595 16.3168C2.96762 16.3835 2.84262 16.4168 2.72595 16.4168Z" fill="#E6E7E6"/>
</svg>
