<svg width="33" height="32" viewBox="0 0 33 32" fill="none" xmlns="http://www.w3.org/2000/svg">
<rect x="0.926758" width="32" height="32" rx="16" fill="white"/>
<path d="M18.867 16.1892C18.867 17.1558 18.0834 17.9392 17.117 17.9392C16.1497 17.9392 15.3662 17.1558 15.3662 16.1892C15.3662 15.2227 16.1497 14.4393 17.117 14.4393C18.0834 14.4393 18.867 15.2227 18.867 16.1892Z" fill="#159947"/>
<path d="M21.2093 13.0934C21.1252 12.8655 20.9908 12.6591 20.8162 12.4898C20.647 12.3153 20.4404 12.1811 20.2127 12.097C20.028 12.0251 19.7501 11.9396 19.2381 11.9163C18.6841 11.8911 18.5186 11.8857 17.1161 11.8857C15.7145 11.8857 15.5481 11.891 14.9949 11.9162C14.4829 11.9396 14.2049 12.0251 14.0203 12.097C13.7917 12.1811 13.586 12.3153 13.4169 12.4898C13.2422 12.6591 13.1078 12.8653 13.0237 13.0934C12.9515 13.2784 12.8665 13.5565 12.8427 14.0683C12.818 14.6219 12.8125 14.7878 12.8125 16.1898C12.8125 17.5916 12.818 17.7576 12.8427 18.3113C12.8665 18.8231 12.9515 19.1011 13.0237 19.286C13.1078 19.5141 13.2422 19.7203 13.4159 19.8897C13.586 20.0641 13.7917 20.1983 14.0203 20.2824C14.2049 20.3545 14.4829 20.4399 14.9949 20.4633C15.5481 20.4885 15.7145 20.4938 17.1161 20.4938C18.5186 20.4938 18.6841 20.4885 19.2381 20.4633C19.7492 20.4399 20.028 20.3545 20.2127 20.2824C20.6708 20.1058 21.0329 19.7439 21.2093 19.286C21.2806 19.1011 21.3665 18.8231 21.3894 18.3113C21.415 17.7576 21.4205 17.5916 21.4205 16.1898C21.4205 14.7878 21.415 14.6219 21.3894 14.0683C21.3665 13.5565 21.2806 13.2784 21.2093 13.0934ZM17.1161 18.8856C15.6276 18.8856 14.4207 17.6786 14.4207 16.1896C14.4207 14.7007 15.6276 13.4938 17.1161 13.4938C18.6054 13.4938 19.8123 14.7007 19.8123 16.1896C19.8123 17.6786 18.6054 18.8856 17.1161 18.8856ZM19.9193 14.0172C19.5709 14.0172 19.2884 13.7351 19.2884 13.3872C19.2884 13.0393 19.5709 12.7572 19.9193 12.7572C20.2667 12.7572 20.5492 13.0393 20.5492 13.3872C20.5492 13.7351 20.2667 14.0172 19.9193 14.0172Z" fill="#159947"/>
</svg>
