<svg width="16" height="16" viewBox="0 0 16 16" fill="none" xmlns="http://www.w3.org/2000/svg">
<path d="M7.94596 15.1668C3.9993 15.1668 0.779297 11.9535 0.779297 8.00016C0.779297 4.04683 3.9993 0.833496 7.94596 0.833496C11.8926 0.833496 15.1126 4.04683 15.1126 8.00016C15.1126 11.9535 11.8993 15.1668 7.94596 15.1668ZM7.94596 1.8335C4.54596 1.8335 1.7793 4.60016 1.7793 8.00016C1.7793 11.4002 4.54596 14.1668 7.94596 14.1668C11.346 14.1668 14.1126 11.4002 14.1126 8.00016C14.1126 4.60016 11.346 1.8335 7.94596 1.8335Z" fill="#808783"/>
<path d="M10.6126 8.5H5.2793C5.00596 8.5 4.7793 8.27333 4.7793 8C4.7793 7.72667 5.00596 7.5 5.2793 7.5H10.6126C10.886 7.5 11.1126 7.72667 11.1126 8C11.1126 8.27333 10.8926 8.5 10.6126 8.5Z" fill="#808783"/>
</svg>
