<svg width="20" height="20" viewBox="0 0 20 20" fill="none" xmlns="http://www.w3.org/2000/svg">
<path d="M18.3334 7.70837H1.66669C1.32502 7.70837 1.04169 7.42504 1.04169 7.08337C1.04169 6.74171 1.32502 6.45837 1.66669 6.45837H18.3334C18.675 6.45837 18.9584 6.74171 18.9584 7.08337C18.9584 7.42504 18.675 7.70837 18.3334 7.70837Z" fill="#020F07"/>
<path d="M6.66667 14.375H5C4.65833 14.375 4.375 14.0917 4.375 13.75C4.375 13.4083 4.65833 13.125 5 13.125H6.66667C7.00833 13.125 7.29167 13.4083 7.29167 13.75C7.29167 14.0917 7.00833 14.375 6.66667 14.375Z" fill="#020F07"/>
<path d="M12.0833 14.375H8.75C8.40833 14.375 8.125 14.0917 8.125 13.75C8.125 13.4083 8.40833 13.125 8.75 13.125H12.0833C12.425 13.125 12.7083 13.4083 12.7083 13.75C12.7083 14.0917 12.425 14.375 12.0833 14.375Z" fill="#020F07"/>
<path d="M14.6334 17.7083H5.36669C2.05002 17.7083 1.04169 16.7083 1.04169 13.425V6.57496C1.04169 3.29163 2.05002 2.29163 5.36669 2.29163H14.625C17.9417 2.29163 18.95 3.29163 18.95 6.57496V13.4166C18.9584 16.7083 17.95 17.7083 14.6334 17.7083ZM5.36669 3.54163C2.75002 3.54163 2.29169 3.99163 2.29169 6.57496V13.4166C2.29169 16 2.75002 16.45 5.36669 16.45H14.625C17.2417 16.45 17.7 16 17.7 13.4166V6.57496C17.7 3.99163 17.2417 3.54163 14.625 3.54163H5.36669Z" fill="#020F07"/>
</svg>
