<svg width="20" height="20" viewBox="0 0 20 20" fill="none" xmlns="http://www.w3.org/2000/svg">
<path d="M3.67503 13.9583C3.47503 16.3666 5.29169 18.3333 7.70836 18.3333H11.7C14.4167 18.3333 16.2834 16.1416 15.8334 13.4583C15.3584 10.6416 12.6417 8.33331 9.78336 8.33331C6.68336 8.33331 3.93336 10.8666 3.67503 13.9583Z" stroke="#020F07" stroke-width="1.25" stroke-linecap="round" stroke-linejoin="round"/>
<path d="M8.725 6.24998C9.87559 6.24998 10.8083 5.31724 10.8083 4.16665C10.8083 3.01605 9.87559 2.08331 8.725 2.08331C7.5744 2.08331 6.64166 3.01605 6.64166 4.16665C6.64166 5.31724 7.5744 6.24998 8.725 6.24998Z" stroke="#020F07" stroke-width="1.25" stroke-linecap="round" stroke-linejoin="round"/>
<path d="M14.4167 7.24996C15.3371 7.24996 16.0833 6.50377 16.0833 5.58329C16.0833 4.66282 15.3371 3.91663 14.4167 3.91663C13.4962 3.91663 12.75 4.66282 12.75 5.58329C12.75 6.50377 13.4962 7.24996 14.4167 7.24996Z" stroke="#020F07" stroke-width="1.25" stroke-linecap="round" stroke-linejoin="round"/>
<path d="M17.5 10.5833C18.1904 10.5833 18.75 10.0237 18.75 9.33331C18.75 8.64296 18.1904 8.08331 17.5 8.08331C16.8096 8.08331 16.25 8.64296 16.25 9.33331C16.25 10.0237 16.8096 10.5833 17.5 10.5833Z" stroke="#020F07" stroke-width="1.25" stroke-linecap="round" stroke-linejoin="round"/>
<path d="M3.30833 8.91665C4.2288 8.91665 4.975 8.17045 4.975 7.24998C4.975 6.32951 4.2288 5.58331 3.30833 5.58331C2.38785 5.58331 1.64166 6.32951 1.64166 7.24998C1.64166 8.17045 2.38785 8.91665 3.30833 8.91665Z" stroke="#020F07" stroke-width="1.25" stroke-linecap="round" stroke-linejoin="round"/>
</svg>
