<svg width="20" height="20" viewBox="0 0 20 20" fill="none" xmlns="http://www.w3.org/2000/svg">
<path d="M0.833496 18.3334H19.1668" stroke="white" stroke-width="1.5" stroke-miterlimit="10" stroke-linecap="round" stroke-linejoin="round"/>
<path d="M16.4834 18.3417V14.625" stroke="white" stroke-width="1.5" stroke-miterlimit="10" stroke-linecap="round" stroke-linejoin="round"/>
<path d="M16.4998 9.07495C15.4832 9.07495 14.6665 9.89163 14.6665 10.9083V12.7999C14.6665 13.8166 15.4832 14.6333 16.4998 14.6333C17.5165 14.6333 18.3332 13.8166 18.3332 12.7999V10.9083C18.3332 9.89163 17.5165 9.07495 16.4998 9.07495Z" stroke="white" stroke-width="1.5" stroke-miterlimit="10" stroke-linecap="round" stroke-linejoin="round"/>
<path d="M1.75 18.3333V5.02498C1.75 3.34998 2.58338 2.5083 4.24171 2.5083H9.43336C11.0917 2.5083 11.9167 3.34998 11.9167 5.02498V18.3333" stroke="white" stroke-width="1.5" stroke-miterlimit="10" stroke-linecap="round" stroke-linejoin="round"/>
<path d="M4.8335 6.875H8.95851" stroke="white" stroke-width="1.5" stroke-miterlimit="10" stroke-linecap="round" stroke-linejoin="round"/>
<path d="M4.8335 10H8.95851" stroke="white" stroke-width="1.5" stroke-miterlimit="10" stroke-linecap="round" stroke-linejoin="round"/>
<path d="M6.875 18.3334V15.2084" stroke="white" stroke-width="1.5" stroke-miterlimit="10" stroke-linecap="round" stroke-linejoin="round"/>
</svg>
