<svg width="21" height="21" viewBox="0 0 21 21" fill="none" xmlns="http://www.w3.org/2000/svg">
<path d="M1.67285 18.8334H20.0062" stroke="#159947" stroke-width="1.5" stroke-miterlimit="10" stroke-linecap="round" stroke-linejoin="round"/>
<path d="M17.3228 18.8417V15.125" stroke="#159947" stroke-width="1.5" stroke-miterlimit="10" stroke-linecap="round" stroke-linejoin="round"/>
<path d="M17.3392 9.57495C16.3225 9.57495 15.5059 10.3916 15.5059 11.4083V13.2999C15.5059 14.3166 16.3225 15.1333 17.3392 15.1333C18.3559 15.1333 19.1725 14.3166 19.1725 13.2999V11.4083C19.1725 10.3916 18.3559 9.57495 17.3392 9.57495Z" stroke="#159947" stroke-width="1.5" stroke-miterlimit="10" stroke-linecap="round" stroke-linejoin="round"/>
<path d="M2.58936 18.8333V5.52498C2.58936 3.84998 3.42273 3.0083 5.08106 3.0083H10.2727C11.931 3.0083 12.756 3.84998 12.756 5.52498V18.8333" stroke="#159947" stroke-width="1.5" stroke-miterlimit="10" stroke-linecap="round" stroke-linejoin="round"/>
<path d="M5.67285 7.375H9.79786" stroke="#159947" stroke-width="1.5" stroke-miterlimit="10" stroke-linecap="round" stroke-linejoin="round"/>
<path d="M5.67285 10.5H9.79786" stroke="#159947" stroke-width="1.5" stroke-miterlimit="10" stroke-linecap="round" stroke-linejoin="round"/>
<path d="M7.71436 18.8334V15.7084" stroke="#159947" stroke-width="1.5" stroke-miterlimit="10" stroke-linecap="round" stroke-linejoin="round"/>
</svg>
