<svg width="26" height="26" viewBox="0 0 26 26" fill="none" xmlns="http://www.w3.org/2000/svg">
<path d="M1.43939 11.0771C1.14822 11.073 0.85267 11.073 0.51709 11.073C0.51709 10.7724 0.51709 10.4717 0.51709 10.1241C0.792454 10.1241 1.06324 10.1241 1.3889 10.1277C1.44378 10.1313 1.43501 10.1231 1.43458 10.173C1.43156 10.5117 1.42896 10.8007 1.42635 11.0896C1.42635 11.0896 1.435 11.0812 1.43939 11.0771Z" fill="white"/>
<path d="M9.47008 20.046C9.47008 19.7505 9.47008 19.455 9.47008 19.1153C9.13813 19.1153 8.84808 19.1153 8.50192 19.1153C8.50192 18.4395 8.50192 17.8067 8.50164 17.1216C8.50135 17.0693 8.49271 17.0776 8.54766 17.0737C8.87419 17.0699 9.14578 17.0699 9.48061 17.0699C9.48061 16.3603 9.48061 15.6985 9.48061 15.0744C9.8729 15.0744 10.2004 15.0744 10.5693 15.0744C10.5693 15.4444 10.5693 15.773 10.5693 16.1015C10.9097 16.1015 11.2066 16.1015 11.4995 16.1566C11.4955 16.4824 11.4955 16.7531 11.4955 17.0601C12.2058 17.0601 12.8723 17.0601 13.5351 17.115C13.5316 17.4414 13.5316 17.7129 13.5316 17.9845C13.8811 17.9845 14.1817 17.9845 14.4497 17.9845C14.4497 17.6526 14.4497 17.3652 14.4497 17.0772C14.1142 17.0772 13.8179 17.0772 13.5259 17.0208C13.5302 16.3355 13.5302 15.7066 13.5302 15.0756C13.1407 15.0756 12.8008 15.0756 12.419 15.0756C12.419 15.4462 12.419 15.7743 12.419 16.1184C12.0796 16.1184 11.7831 16.1184 11.4905 16.062C11.4975 15.04 11.5004 14.0744 11.4992 13.113C11.495 13.1172 11.4867 13.1256 11.5415 13.1217C11.8687 13.1178 12.1411 13.1178 12.4578 13.1178C12.4578 13.4564 12.4578 13.7448 12.4578 14.0519C13.1498 14.0519 13.7965 14.0519 14.4454 14.0519C14.4454 13.7252 14.4454 13.4245 14.4454 13.1005C14.1282 13.1005 13.8546 13.1005 13.5164 13.1005C13.5164 12.4148 13.5164 11.7514 13.5164 11.1202C13.1218 11.1202 12.7931 11.1202 12.4225 11.1202C12.4225 11.4484 12.4225 11.7374 12.4225 12.031C12.0813 12.031 11.784 12.031 11.4908 12.0352C11.495 12.0394 11.5034 12.0477 11.4995 11.9929C11.4956 11.6667 11.4956 11.3953 11.4956 11.0818C11.1615 11.0818 10.8735 11.0818 10.5453 11.0818C10.5453 10.3721 10.5453 9.70456 10.5412 9.04122C10.537 9.04542 10.5286 9.0538 10.5835 9.04988C10.9102 9.04597 11.182 9.04597 11.4973 9.04597C11.4973 9.42183 11.4973 9.74957 11.4973 10.1141C12.846 10.1141 14.1507 10.1141 15.4515 10.169C15.4477 10.4964 15.4477 10.7689 15.4477 11.0853C15.1085 11.0853 14.8197 11.0853 14.5123 11.0853C14.5123 11.4181 14.5123 11.7056 14.5123 11.9969C15.1971 11.9969 15.8577 11.9969 16.5621 11.9969C16.5621 11.6652 16.5621 11.3767 16.5621 11.0449C16.8957 11.0449 17.1835 11.0449 17.4913 11.0449C17.4913 10.0256 17.4913 9.05229 17.4872 8.08328C17.483 8.08761 17.4748 8.09638 17.4748 8.09638C17.7699 8.09638 18.0651 8.09638 18.4181 8.09638C18.4181 8.75038 18.4181 9.40849 18.4181 10.1226C18.7808 10.1226 19.0888 10.1226 19.4463 10.1124C19.496 10.1023 19.4862 10.0936 19.4862 10.0936C19.4862 10.4063 19.4862 10.719 19.4862 11.0776C19.1475 11.0776 18.8186 11.0776 18.4657 11.0776C18.4657 11.4115 18.4657 11.6996 18.4657 12.0342C19.8068 12.0342 21.1331 12.0342 22.4855 12.0342C22.4855 12.4074 22.4855 12.7349 22.4855 13.1092C22.146 13.1092 21.8174 13.1092 21.4424 13.1092C21.4424 13.7619 21.4424 14.371 21.4424 15.0057C21.1081 15.0057 20.8202 15.0057 20.4857 15.0057C20.4857 14.7073 20.4857 14.418 20.4857 14.0758C20.1682 14.0758 19.8956 14.0758 19.5707 14.0259C19.5185 13.7043 19.5185 13.4325 19.5185 13.1602C19.1288 13.1602 18.7881 13.1602 18.4814 13.1602C18.4814 13.4914 18.4814 13.7791 18.4814 14.0697C18.8581 14.0697 19.1945 14.0697 19.5308 14.0697C19.5308 14.3668 19.5308 14.6638 19.5308 15.0052C19.1754 15.0052 18.8465 15.0052 18.479 15.0052C18.479 15.3757 18.479 15.7041 18.479 16.0966C19.7904 16.0966 21.13 16.0966 22.4894 16.0966C22.4894 16.4476 22.4894 16.735 22.4894 17.0677C22.1391 17.0677 21.8104 17.0677 21.4594 17.0677C21.4594 17.7595 21.4594 18.4062 21.4594 19.1061C21.7859 19.1061 22.0982 19.1061 22.4617 19.1061C22.513 19.1061 22.5043 19.0979 22.5043 19.0979C22.5043 19.7116 22.5043 20.3253 22.5043 20.9839C22.1736 20.9839 21.8465 20.9839 21.4768 20.9839C21.4768 21.6868 21.4768 22.3465 21.4768 23.0581C21.7871 23.0581 22.0986 23.0581 22.4615 23.0578C22.5128 23.0574 22.5044 23.0488 22.5083 23.1034C22.5096 23.4864 22.507 23.8149 22.5086 24.139C22.5128 24.1347 22.521 24.1259 22.521 24.1259C21.1751 24.1259 19.8293 24.1259 18.4395 24.1259C18.4395 24.471 18.4395 24.7591 18.4395 25.0693C18.1074 25.0693 17.8198 25.0693 17.4872 25.0693C17.4872 24.7619 17.4872 24.4735 17.4872 24.1411C17.1554 24.1411 16.8669 24.1411 16.5244 24.1411C16.5244 23.7865 16.5244 23.4744 16.5742 23.1095C16.8959 23.0568 17.1677 23.0568 17.44 23.0568C17.44 22.7072 17.44 22.4064 17.44 22.1389C17.1083 22.1389 16.8203 22.1389 16.5305 22.1389C16.5305 22.4755 16.5305 22.7723 16.5305 23.0692C16.1959 23.0692 15.8613 23.0692 15.464 23.0692C15.464 23.4059 15.464 23.7477 15.464 24.134C15.1315 24.134 14.861 24.134 14.5398 24.1344C14.489 24.1347 14.4974 24.1434 14.4935 24.088C14.4895 23.7222 14.4895 23.4118 14.4895 23.0978C14.1403 23.0978 13.8401 23.0978 13.5225 23.0978C13.5225 23.4735 13.5225 23.8084 13.5267 24.139C13.5309 24.1347 13.5392 24.1259 13.5392 24.1259C12.8831 24.1259 12.2271 24.1259 11.5214 24.1259C11.5065 24.44 11.4928 24.7284 11.4773 25.0549C11.1913 25.0549 10.9026 25.0549 10.5655 25.0549C10.5655 24.432 10.5655 23.7834 10.5655 23.096C10.1938 23.096 9.86583 23.096 9.48923 23.096C9.48923 23.7159 9.48923 24.3642 9.48923 25.0524C9.15675 25.0524 8.86907 25.0524 8.54036 25.0524C8.54036 23.4224 8.54036 21.7628 8.54036 20.0609C8.82896 20.0609 9.1035 20.0609 9.41958 20.1042C9.46113 20.7949 9.46113 21.4423 9.46113 22.0604C10.1892 22.0604 10.8366 22.0604 11.5254 22.0604C11.5254 21.692 11.5254 21.3623 11.5254 21.0122C11.8665 21.0122 12.1639 21.0122 12.4575 21.0677C12.4537 21.4344 12.4537 21.7457 12.4537 22.0565C13.1636 22.0565 13.8223 22.0565 14.4806 22.0565C14.4806 21.3604 14.4806 20.7069 14.5353 20.0579C14.8625 20.0624 15.1349 20.0624 15.4514 20.0624C15.4514 20.4023 15.4514 20.6909 15.4514 20.9976C15.824 20.9976 16.1512 20.9976 16.4839 20.9976C16.4839 19.9938 16.4839 19.0142 16.4839 18.0676C16.114 18.0676 15.7857 18.0676 15.4147 18.0676C15.4147 18.4366 15.4147 18.7654 15.4147 19.1351C15.0805 19.1351 14.7915 19.1351 14.4976 19.1351C14.4976 19.4762 14.4976 19.7733 14.4436 20.0672C14.1006 20.0666 13.8116 20.0694 13.5266 20.0173C13.5304 19.6926 13.5304 19.4227 13.5304 19.1142C13.1412 19.1142 12.793 19.1142 12.4487 19.0588C12.4525 18.6928 12.4525 18.3823 12.4525 18.0682C12.1044 18.0682 11.8041 18.0682 11.5033 18.0682C11.5033 18.444 11.5033 18.7791 11.4485 19.11C11.1242 19.1058 10.8546 19.1058 10.5248 19.1058C10.5248 19.4464 10.5248 19.7466 10.5248 20.046C10.1326 20.046 9.80133 20.046 9.47008 20.046ZM16.6262 15.0327C16.898 15.0327 17.1698 15.0327 17.4594 15.0327C17.4594 14.3772 17.4594 13.7712 17.4594 13.1579C16.7748 13.1579 16.1145 13.1579 15.4869 13.1579C15.4869 13.4875 15.4869 13.7757 15.4869 14.1056C15.856 14.1056 16.1848 14.1056 16.5334 14.1056C16.5334 14.4466 16.5334 14.7436 16.4205 15.0339C15.7908 15.0339 15.1612 15.0339 14.5114 15.0339C14.5114 15.4096 14.5114 15.7359 14.5114 16.0725C15.1948 16.0725 15.8552 16.0725 16.5164 16.0725C16.5164 15.697 16.5164 15.3603 16.6262 15.0327ZM20.3876 20.0564C20.3876 19.0763 20.3876 18.0961 20.3876 17.0941C19.4614 17.0941 18.4948 17.0941 17.5082 17.0941C17.5082 18.0856 17.5082 19.0522 17.5082 20.0628C18.4457 20.0628 19.3587 20.0628 20.3876 20.0564ZM19.519 21.6737C19.5226 22.5929 18.7359 21.8021 18.4666 22.2217C18.4666 22.442 18.4666 22.7286 18.4666 23.0146C19.1515 23.0146 19.8102 23.0146 20.4402 23.0146C20.4402 22.3262 20.4402 21.6807 20.4402 21.0566C20.1152 21.0566 19.8276 21.0566 19.519 21.0566C19.519 21.248 19.519 21.4044 19.519 21.6737Z" fill="white"/>
<path d="M7.55158 10.1316C7.55158 9.79512 7.55158 9.4586 7.55158 9.07739C7.20342 9.07739 6.87519 9.07739 6.50586 9.07739C6.50586 8.74751 6.50586 8.46017 6.50586 8.10804C7.45035 8.10804 8.43045 8.10804 9.45968 8.10804C9.45968 7.77459 9.45968 7.50288 9.45931 7.18035C9.45894 7.12952 9.4503 7.13787 9.50565 7.13395C9.88455 7.13003 10.2081 7.13003 10.5449 7.13003C10.5449 6.71037 10.5449 6.37682 10.5407 6.04747C10.5365 6.05167 10.5281 6.06008 10.5821 6.0562C10.9248 6.04916 11.2134 6.046 11.4986 6.09825C11.4952 6.46512 11.4952 6.77659 11.4952 7.08602C11.8457 7.08602 12.146 7.08602 12.4134 7.08602C12.4134 6.71457 12.4134 6.38696 12.4134 6.05995C12.0778 6.05995 11.7814 6.05995 11.4893 6.00364C11.4968 5.3406 11.4999 4.73386 11.4988 4.13148C11.4946 4.13584 11.4863 4.14468 11.4863 4.14468C11.7831 4.14468 12.0798 4.14468 12.4189 4.14468C12.4189 4.43659 12.4189 4.72546 12.4189 5.05443C13.1208 5.05443 13.7815 5.05443 14.4872 5.05443C14.4872 4.76008 14.4872 4.47232 14.4872 4.14105C14.8184 4.14105 15.1065 4.14105 15.4461 4.14105C15.4461 3.78714 15.4461 3.47528 15.4967 3.11036C15.8591 3.05731 16.171 3.05731 16.5023 3.05731C16.5023 2.7218 16.5023 2.4348 16.5023 2.13935C16.1371 2.13935 15.7956 2.13935 15.4527 2.13935C15.4527 2.47618 15.4527 2.77323 15.4527 3.07028C14.4786 3.07028 13.5045 3.07028 12.4917 3.07028C12.4917 2.07624 12.4917 1.11117 12.4917 0.104919C12.795 0.104919 13.1222 0.104919 13.4948 0.104919C13.4948 0.364344 13.4948 0.65345 13.4948 0.982605C14.1608 0.982605 14.7833 0.982605 15.4308 0.982605C15.4308 0.697164 15.4308 0.422948 15.4308 0.106387C16.0992 0.106387 16.7466 0.106387 17.4816 0.106387C17.4816 2.70819 17.4816 5.34578 17.4779 8.03998C17.4743 8.0966 17.4825 8.08782 17.4327 8.08736C17.0939 8.09016 16.805 8.09341 16.52 8.04011C16.5238 7.3545 16.5238 6.72543 16.5238 6.07458C16.1505 6.07458 15.8245 6.07458 15.4549 6.07458C15.4549 6.76053 15.4549 7.4286 15.4009 8.09244C15.0581 8.09101 14.7692 8.09381 14.4841 8.04008C14.488 7.35437 14.488 6.7252 14.488 6.07442C14.1547 6.07442 13.8682 6.07442 13.5387 6.07442C13.5387 6.76017 13.5387 7.4284 13.4822 8.09242C12.4649 8.08821 11.504 8.08821 10.5281 8.08821C10.5281 8.46118 10.5281 8.7576 10.5281 9.05401C10.5281 9.05401 10.5365 9.04563 10.4853 9.0453C10.1229 9.04497 9.81172 9.04497 9.45927 9.04497C9.45927 9.42011 9.45927 9.74696 9.45927 10.1151C8.78946 10.1151 8.16181 10.1151 7.53848 10.1193C7.5428 10.1234 7.55158 10.1316 7.55158 10.1316Z" fill="white"/>
<path d="M5.98428 7.03596C4.13602 7.03596 2.34738 7.03596 0.530762 7.03596C0.530762 4.69905 0.530762 2.41668 0.530762 0.101074C2.8345 0.101074 5.11812 0.101074 7.43645 0.101074C7.43645 2.39535 7.43645 4.69577 7.43645 7.03596C6.9564 7.03596 6.50015 7.03596 5.98428 7.03596ZM5.44672 1.08298C4.14162 1.08298 2.83651 1.08298 1.53227 1.08298C1.53227 2.78852 1.53227 4.40928 1.53227 6.04394C3.19032 6.04394 4.81324 6.04394 6.44286 6.04394C6.44286 4.37759 6.44286 2.73944 6.44286 1.083C6.12314 1.083 5.84474 1.083 5.44672 1.08298Z" fill="white"/>
<path d="M2.51323 18.1197C4.1854 18.1197 5.79773 18.1197 7.44159 18.1197C7.44159 20.444 7.44159 22.7283 7.44159 25.0511C5.15502 25.0511 2.87401 25.0511 0.547363 25.0511C0.547363 22.7714 0.547363 20.4748 0.547363 18.1197C1.18895 18.1197 1.82116 18.1197 2.51323 18.1197ZM2.33498 19.0874C2.06244 19.0874 1.78989 19.0874 1.54402 19.0874C1.54402 20.7898 1.54402 22.4159 1.54402 24.0514C3.19866 24.0514 4.80888 24.0514 6.44192 24.0514C6.44192 22.3897 6.44192 20.7494 6.44192 19.0874C5.08577 19.0874 3.77036 19.0874 2.33498 19.0874Z" fill="white"/>
<path d="M23.9486 0.069519C24.4837 0.069519 24.9592 0.069519 25.4678 0.069519C25.4678 2.38739 25.4678 4.67064 25.4678 6.99522C23.1914 6.99522 20.9089 6.99522 18.5811 6.99522C18.5811 4.72253 18.5811 2.42473 18.5811 0.069519C20.3503 0.069519 22.1196 0.069519 23.9486 0.069519ZM19.498 3.11768C19.498 4.08881 19.498 5.05995 19.498 6.03818C21.2019 6.03818 22.8454 6.03818 24.5 6.03818C24.5 4.37678 24.5 2.75136 24.5 1.07943C23.6562 1.07943 22.8416 1.07943 22.027 1.07943C21.1946 1.07943 20.3623 1.07943 19.498 1.07943C19.498 1.76346 19.498 2.38075 19.498 3.11768Z" fill="white"/>
<path d="M6.47054 16.1234C6.17362 16.1234 5.87671 16.1234 5.53532 16.1234C5.53532 15.7683 5.53532 15.4395 5.53532 15.0718C5.20501 15.0718 4.91683 15.0718 4.58269 15.0718C4.58269 15.3712 4.58269 15.6998 4.58269 16.0743C4.21226 16.0743 3.88416 16.0743 3.48918 16.0743C3.48918 16.4201 3.48918 16.7233 3.48918 17.0461C3.13503 17.0461 2.84759 17.0461 2.53662 17.0461C2.53662 16.3767 2.53662 15.7301 2.53662 15.0382C2.8442 15.0382 3.1325 15.0382 3.47201 15.0382C3.47201 14.7215 3.47201 14.4492 3.47164 14.1261C3.47127 14.0754 3.46261 14.0838 3.51798 14.0799C3.88428 14.0761 4.19521 14.0761 4.54826 14.0761C4.54826 13.7407 4.54826 13.4536 4.54826 13.1082C5.21774 13.1082 5.84548 13.1082 6.46939 13.1632C6.46556 13.489 6.46556 13.7599 6.46556 14.0357C6.85355 14.0357 7.19438 14.0357 7.53447 14.0357C7.53447 13.7 7.53447 13.4041 7.59085 13.1125C8.24961 13.1168 8.852 13.1168 9.45062 13.1168C9.45062 12.7003 9.45062 12.3654 9.50702 12.0346C10.21 12.0418 10.8566 12.0448 11.5032 12.0479C11.5032 12.0479 11.4948 12.0395 11.4945 12.0899C11.4916 12.4688 11.489 12.7972 11.4864 13.1257C11.4864 13.1257 11.4948 13.1173 11.4442 13.117C11.1214 13.1168 10.8494 13.1168 10.5338 13.1168C10.5338 13.4549 10.5338 13.743 10.5338 14.0951C9.83026 14.0951 9.16867 14.0951 8.49247 14.0951C8.49247 15.1328 8.49247 16.1053 8.49247 17.0777C8.49247 17.0777 8.50111 17.0694 8.50549 17.0653C7.84389 17.0612 7.17789 17.0612 6.46446 17.0612C6.46446 16.7557 6.46446 16.4857 6.51485 16.1633C6.87704 16.1109 7.18884 16.1109 7.49955 16.1109C7.49955 15.7203 7.49955 15.3798 7.49955 15.0737C7.1276 15.0737 6.80038 15.0737 6.47054 15.0737C6.47054 15.4504 6.47054 15.7869 6.47054 16.1234Z" fill="white"/>
<path d="M1.44412 10.1316C1.44412 9.79486 1.44412 9.45814 1.44412 9.07665C1.1338 9.07665 0.84581 9.07665 0.51709 9.07665C0.51709 8.74543 0.51709 8.45667 0.51709 8.1275C2.14131 8.1275 3.79716 8.1275 5.5059 8.1275C5.5059 8.75831 5.5059 9.38847 5.50625 10.071C5.50661 10.1233 5.51524 10.115 5.46122 10.1189C5.11831 10.126 4.82942 10.1292 4.54437 10.077C4.54821 9.71106 4.54821 9.40055 4.54821 9.08601C4.15987 9.08601 3.8197 9.08601 3.47927 9.08601C3.47927 9.46186 3.47927 9.79716 3.42287 10.1282C2.71988 10.121 2.07329 10.118 1.43102 10.1192C1.43535 10.1233 1.44412 10.1316 1.44412 10.1316Z" fill="white"/>
<path d="M3.47581 14.0713C2.82485 14.0672 2.1695 14.0672 1.44868 14.0672C1.44868 15.0686 1.44868 16.0497 1.44868 17.0488C1.10994 17.0488 0.836304 17.0488 0.52002 17.0488C0.52002 15.405 0.52002 13.7484 0.52002 12.0405C0.789657 12.0405 1.06165 12.0405 1.38443 12.0402C1.43522 12.0398 1.42686 12.0311 1.43076 12.0865C1.43466 12.4523 1.43466 12.7627 1.43466 13.0771C1.82417 13.0771 2.16428 13.0771 2.52144 13.0771C2.52144 12.7015 2.52144 12.3663 2.51725 12.0353C2.51306 12.0395 2.50468 12.0479 2.55963 12.044C2.88513 12.0401 3.15567 12.0401 3.46276 12.0401C3.46276 12.7509 3.46276 13.4174 3.46276 14.0838C3.46276 14.0838 3.47141 14.0754 3.47581 14.0713Z" fill="white"/>
<path d="M22.5167 19.1105C22.5208 18.7786 22.5208 18.4423 22.5208 18.0439C23.1794 18.0439 23.8406 18.0439 24.524 18.0439C24.524 17.3781 24.524 16.7739 24.524 16.125C24.1881 16.125 23.8603 16.125 23.4699 16.125C23.4699 15.7745 23.4699 15.4649 23.4597 15.1058C23.4495 15.0562 23.4408 15.066 23.4408 15.066C24.112 15.066 24.7832 15.066 25.4801 15.066C25.4801 16.401 25.4801 17.7253 25.4801 19.1042C24.5171 19.1042 23.5671 19.1042 22.5605 19.1011C22.5039 19.0979 22.5126 19.1061 22.5167 19.1105Z" fill="white"/>
<path d="M9.4637 7.12533C9.17037 7.12122 8.87265 7.12122 8.53813 7.12122C8.53813 6.47172 8.53813 5.82398 8.53813 5.12964C8.80141 5.12964 9.08889 5.12964 9.41838 5.12964C9.41838 4.79735 9.41838 4.50888 9.41838 4.15346C9.15098 4.15346 8.84698 4.15346 8.52441 4.15346C8.52441 3.75995 8.52441 3.43273 8.52441 3.08173C9.51229 3.08173 10.4772 3.08173 11.4938 3.08173C11.4938 3.40928 11.4938 3.72144 11.4903 4.08909C11.4867 4.14459 11.495 4.13575 11.4442 4.13519C11.1229 4.13464 10.8525 4.13464 10.5285 4.13464C10.5285 4.8065 10.5285 5.43324 10.5285 6.05999C10.5285 6.05999 10.5369 6.05158 10.4857 6.0512C10.111 6.05082 9.7874 6.05082 9.45068 6.05082C9.45068 6.47065 9.45068 6.80422 9.45068 7.13778C9.45068 7.13778 9.45932 7.12944 9.4637 7.12533Z" fill="white"/>
<path d="M24.5396 23.0491C24.5396 23.3855 24.5396 23.722 24.5396 24.1027C24.8492 24.1027 25.1373 24.1027 25.466 24.1027C25.466 24.433 25.466 24.7212 25.466 25.0515C24.5204 25.0515 23.5419 25.0515 22.5137 25.0515C22.5137 24.7795 22.5137 24.5078 22.5173 24.1811C22.5209 24.1261 22.5127 24.1349 22.5634 24.1353C22.8838 24.1357 23.1536 24.1357 23.4792 24.1357C23.4792 23.7453 23.4792 23.3971 23.475 23.0531C23.4708 23.0573 23.4624 23.0657 23.517 23.0618C23.9001 23.0605 24.2285 23.0631 24.5527 23.0615C24.5483 23.0573 24.5396 23.0491 24.5396 23.0491Z" fill="white"/>
<path d="M21.4263 9.03839C21.4263 9.69313 21.4263 10.3479 21.4263 11.0418C21.1313 11.0418 20.8439 11.0418 20.5101 11.0418C20.5101 10.7808 20.5101 10.4927 20.5101 10.1208C20.1788 10.1208 19.89 10.1208 19.5436 10.1072C19.486 10.0937 19.4958 10.1024 19.4999 10.1061C19.504 9.46098 19.504 8.8122 19.504 8.12561C19.8227 8.12561 20.108 8.12561 20.4585 8.12561C20.4585 8.39776 20.4585 8.69954 20.4585 9.04651C20.792 9.04651 21.0628 9.04651 21.3843 9.04655C21.435 9.04659 21.4263 9.03839 21.4263 9.03839Z" fill="white"/>
<path d="M23.4791 14.0826C23.4791 13.4285 23.4791 12.7743 23.4791 12.08C24.1439 12.08 24.8033 12.08 25.4825 12.08C25.4825 12.4179 25.4825 12.7448 25.4825 13.1162C25.1724 13.1162 24.883 13.1162 24.552 13.1162C24.552 13.4474 24.552 13.737 24.552 14.0744C24.1973 14.0744 23.8851 14.0744 23.5216 14.0744C23.4703 14.0744 23.4791 14.0826 23.4791 14.0826Z" fill="white"/>
<path d="M23.4799 22.1076C23.4799 21.7711 23.4799 21.4346 23.4799 21.0599C24.1268 21.0599 24.7732 21.0599 25.4632 21.0599C25.4632 21.6882 25.4632 22.3476 25.4632 23.0565C25.1927 23.0565 24.9212 23.0565 24.5947 23.0529C24.5396 23.0493 24.5484 23.0575 24.5489 23.0068C24.5493 22.6863 24.5493 22.4165 24.5493 22.091C24.1589 22.091 23.8107 22.091 23.4668 22.0952C23.4711 22.0994 23.4799 22.1076 23.4799 22.1076Z" fill="white"/>
<path d="M5.50195 10.1274C6.14455 10.1291 6.79154 10.1267 7.49503 10.1279C7.55153 10.1316 7.54276 10.1234 7.54233 10.1732C7.54514 10.512 7.54836 10.8008 7.4962 11.0859C7.11712 11.0821 6.79342 11.0821 6.47296 11.0821C6.47296 11.4601 6.47296 11.7543 6.41805 12.0444C6.09268 12.0402 5.82223 12.0402 5.51498 12.0402C5.51498 11.3682 5.51498 10.7416 5.51498 10.115C5.51498 10.115 5.50634 10.1233 5.50195 10.1274Z" fill="white"/>
<path d="M10.5826 2.05132C10.5439 1.69977 10.5439 1.38903 10.5439 1.05072C10.8588 1.05072 11.144 1.05072 11.4623 1.05072C11.4623 1.37281 11.4623 1.69797 11.4623 2.09214C11.1932 2.09214 10.9072 2.09214 10.5826 2.05132Z" fill="white"/>
<path d="M1.43923 12.0442C1.44095 11.7595 1.43854 11.4704 1.43577 11.1314C1.4354 11.0815 1.42675 11.0899 1.48207 11.086C1.86091 11.0821 2.18443 11.0821 2.50458 11.0821C2.50458 11.4598 2.50458 11.7539 2.50458 12.048C2.50458 12.048 2.51296 12.0396 2.46253 12.0393C2.08365 12.0364 1.75521 12.0338 1.42676 12.0312C1.42676 12.0312 1.43512 12.0398 1.43923 12.0442Z" fill="white"/>
<path d="M24.541 9.05452C24.837 9.05452 25.1331 9.05452 25.4678 9.05452C25.4678 9.38129 25.4678 9.70866 25.4678 10.0797C25.2001 10.0797 24.9 10.0797 24.5498 10.0797C24.5498 9.77048 24.5498 9.45933 24.5495 9.09697C24.5492 9.04577 24.541 9.05452 24.541 9.05452Z" fill="white"/>
<path d="M8.50169 1.27964C8.79299 1.12961 9.08406 1.03601 9.43308 0.923767C9.43308 1.38741 9.43308 1.7123 9.43308 2.06848C9.14323 2.06848 8.85779 2.06848 8.50146 2.06848C8.50146 1.83104 8.50146 1.58355 8.50169 1.27964Z" fill="white"/>
<path d="M24.553 9.04199C24.2218 9.0379 23.8862 9.0379 23.5107 9.0379C23.5107 8.74819 23.5107 8.46089 23.5107 8.13037C23.8175 8.13037 24.1577 8.13037 24.5474 8.13037C24.5474 8.40248 24.5474 8.67368 24.5439 8.99986C24.5404 9.05484 24.5486 9.04609 24.553 9.04199Z" fill="white"/>
<path d="M21.4391 9.051C21.4432 8.75904 21.4432 8.46269 21.4432 8.12704C21.7698 8.12704 22.0968 8.12704 22.4689 8.12704C22.4689 8.39396 22.4689 8.6941 22.4689 9.04467C22.1597 9.04467 21.8484 9.04467 21.4817 9.04153C21.4263 9.0384 21.435 9.04661 21.4391 9.051Z" fill="white"/>
<path d="M22.5164 23.0617C22.5205 22.7721 22.5205 22.4781 22.5205 22.0999C22.8016 22.0999 23.0857 22.0999 23.4246 22.1036C23.4794 22.1072 23.4706 22.099 23.4702 22.1488C23.4672 22.4876 23.4646 22.7765 23.462 23.0655C23.462 23.0655 23.4704 23.0571 23.4205 23.0568C23.0818 23.0539 22.7928 23.0513 22.5039 23.0487C22.5039 23.0487 22.5123 23.0573 22.5164 23.0617Z" fill="white"/>
<path d="M23.4663 14.0699C23.4641 14.3611 23.466 14.6567 23.4544 15.0091C23.4408 15.066 23.4495 15.0562 23.4532 15.0521C23.1654 15.048 22.8739 15.048 22.5479 15.048C22.5479 14.7308 22.5479 14.4462 22.5479 14.0761C22.8032 14.0761 23.0863 14.0761 23.4243 14.0793C23.4791 14.0825 23.4704 14.0743 23.4663 14.0699Z" fill="white"/>
<path d="M22.9917 11.0808C22.1117 11.1146 22.7022 10.4782 22.4434 10.1652C22.8199 10.1652 23.119 10.1652 23.493 10.1652C23.2602 10.4559 23.9307 11.0842 22.9917 11.0808Z" fill="white"/>
<path d="M15.4424 8.13539C15.767 8.08154 16.0954 8.08411 16.4785 8.08282C16.5331 8.74511 16.5331 9.41125 16.5331 10.1239C16.1694 10.1239 15.8594 10.1239 15.494 10.1277C15.4411 9.48503 15.4437 8.83843 15.4424 8.13539Z" fill="white"/>
<path d="M13.5264 8.13375C13.8114 8.08153 14.1003 8.08412 14.4433 8.08282C14.4973 8.37446 14.4973 8.66998 14.4973 9.00536C14.18 9.00536 13.8793 9.00536 13.5303 9.00536C13.5303 8.7301 13.5303 8.45933 13.5264 8.13375Z" fill="white"/>
<path d="M18.9232 18.0274C19.1353 18.0274 19.2909 18.0274 19.4825 18.0274C19.4825 18.3717 19.4825 18.6973 19.4825 19.0644C19.1696 19.0644 18.8308 19.0644 18.4053 19.0644C18.6692 18.7363 17.9858 18.0973 18.9232 18.0274Z" fill="white"/>
<path d="M12.4482 20.109C12.7728 20.0576 13.1012 20.0602 13.4843 20.0589C13.5389 20.349 13.5389 20.6431 13.5389 21.0219C13.202 21.0219 12.8785 21.0219 12.4997 21.0259C12.4469 20.7408 12.4495 20.4519 12.4482 20.109Z" fill="white"/>
<path d="M11.4902 19.1515C11.7753 19.0993 12.0642 19.102 12.4072 19.1006C12.4586 19.3857 12.456 19.6746 12.4573 20.0175C12.1672 20.0716 11.8733 20.0716 11.4941 20.0716C11.4941 19.7743 11.4941 19.4903 11.4902 19.1515Z" fill="white"/>
<path d="M7.59104 12.0437C7.53728 11.7587 7.53987 11.4697 7.53857 11.1268C8.16128 11.0728 8.78787 11.0728 9.45984 11.0728C9.45984 11.3968 9.45984 11.6672 9.46372 11.9926C8.86087 12.045 8.25413 12.0424 7.59104 12.0437Z" fill="white"/>
<path d="M2.49951 3.29894C2.49951 2.88223 2.49951 2.52488 2.49951 2.12677C3.48309 2.12677 4.44956 2.12677 5.45611 2.12677C5.45611 3.06837 5.45611 4.03514 5.45611 5.04251C4.515 5.04251 3.55005 5.04251 2.49951 5.04251C2.49951 4.49342 2.49951 3.92587 2.49951 3.29894Z" fill="white"/>
<path d="M2.49904 20.9103C2.49902 20.615 2.49902 20.3784 2.49902 20.1077C3.49792 20.1077 4.4643 20.1077 5.46421 20.1077C5.46421 21.0694 5.46421 22.0349 5.46421 23.036C4.49734 23.036 3.53238 23.036 2.49905 23.036C2.49905 22.3491 2.49905 21.6591 2.49904 20.9103Z" fill="white"/>
<path d="M22.8571 5.08185C22.046 5.08184 21.2934 5.08184 20.5146 5.08184C20.5146 4.07451 20.5146 3.10941 20.5146 2.11511C21.4994 2.11511 22.464 2.11511 23.4562 2.11511C23.4562 3.09696 23.4562 4.06176 23.4562 5.08186C23.263 5.08186 23.0893 5.08186 22.8571 5.08185Z" fill="white"/>
<path d="M6.46045 12.0857C6.7851 12.0338 7.11364 12.0364 7.49667 12.0351C7.54857 12.3597 7.54597 12.6883 7.54727 13.0713C7.22261 13.1232 6.89407 13.1206 6.51104 13.1219C6.45915 12.7972 6.46175 12.4687 6.46045 12.0857Z" fill="white"/>
<path d="M3.46631 10.1701C3.79088 10.1178 4.11933 10.1203 4.5024 10.119C4.55702 10.4109 4.55702 10.7067 4.55702 11.0547C4.37384 11.0641 4.20456 11.0764 4.03507 11.0807C3.86153 11.085 3.6878 11.0816 3.47019 11.0816C3.47019 10.7664 3.47019 10.4957 3.46631 10.1701Z" fill="white"/>
</svg>
