<svg width="20" height="20" viewBox="0 0 20 20" fill="none" xmlns="http://www.w3.org/2000/svg">
<path d="M16.1999 4.79999L15.7999 9.59999M4.19995 4.79999L4.68364 12.8294C4.80751 14.8858 4.86946 15.914 5.3829 16.6533C5.63675 17.0189 5.96379 17.3275 6.34319 17.5594C6.80897 17.8441 7.37069 17.956 8.19995 18" stroke="#159947" stroke-width="1.44" stroke-linecap="round"/>
<path d="M9.40002 12.8L10.3091 13.9726C10.7664 12.2655 12.5211 11.2524 14.2282 11.7098C15.102 11.944 15.794 12.518 16.2 13.2517M17.4 16.8L16.491 15.629C16.0335 17.3361 14.2789 18.3492 12.5718 17.8918C11.7183 17.663 11.0382 17.11 10.6287 16.4008" stroke="#159947" stroke-width="1.44" stroke-linecap="round" stroke-linejoin="round"/>
<path d="M3 4.8H17.4M13.4446 4.8L12.8985 3.67338C12.5357 2.92501 12.3542 2.55082 12.0414 2.31745C11.972 2.26568 11.8985 2.21963 11.8216 2.17976C11.4751 2 11.0593 2 10.2276 2C9.37504 2 8.9488 2 8.59656 2.1873C8.51848 2.22881 8.444 2.27672 8.37384 2.33054C8.05728 2.57336 7.8805 2.96124 7.52689 3.73701L7.04234 4.8" stroke="#159947" stroke-width="1.44" stroke-linecap="round"/>
</svg>
