<svg width="21" height="20" viewBox="0 0 21 20" fill="none" xmlns="http://www.w3.org/2000/svg">
<path d="M14.8 5.14166C16.4667 6.3 17.6167 8.14166 17.8501 10.2667" stroke="#808783" stroke-width="1.25" stroke-linecap="round" stroke-linejoin="round"/>
<path d="M3.57501 10.3083C3.79168 8.19162 4.92501 6.34996 6.57501 5.18329" stroke="#808783" stroke-width="1.25" stroke-linecap="round" stroke-linejoin="round"/>
<path d="M7.4917 17.45C8.45837 17.9417 9.55837 18.2167 10.7167 18.2167C11.8334 18.2167 12.8834 17.9667 13.825 17.5083" stroke="#808783" stroke-width="1.25" stroke-linecap="round" stroke-linejoin="round"/>
<path d="M10.7167 6.41666C11.9962 6.41666 13.0334 5.37945 13.0334 4.09999C13.0334 2.82053 11.9962 1.78333 10.7167 1.78333C9.43723 1.78333 8.40002 2.82053 8.40002 4.09999C8.40002 5.37945 9.43723 6.41666 10.7167 6.41666Z" stroke="#808783" stroke-width="1.25" stroke-linecap="round" stroke-linejoin="round"/>
<path d="M4.69167 16.6C5.97113 16.6 7.00833 15.5628 7.00833 14.2833C7.00833 13.0039 5.97113 11.9667 4.69167 11.9667C3.41221 11.9667 2.375 13.0039 2.375 14.2833C2.375 15.5628 3.41221 16.6 4.69167 16.6Z" stroke="#808783" stroke-width="1.25" stroke-linecap="round" stroke-linejoin="round"/>
<path d="M16.6417 16.6C17.9211 16.6 18.9583 15.5628 18.9583 14.2833C18.9583 13.0039 17.9211 11.9667 16.6417 11.9667C15.3622 11.9667 14.325 13.0039 14.325 14.2833C14.325 15.5628 15.3622 16.6 16.6417 16.6Z" stroke="#808783" stroke-width="1.25" stroke-linecap="round" stroke-linejoin="round"/>
</svg>
