<svg width="20" height="20" viewBox="0 0 20 20" fill="none" xmlns="http://www.w3.org/2000/svg">
<path d="M14.1417 10.2083V13.9583C14.1417 17.0833 12.8917 18.3333 9.76666 18.3333H6.01666C2.89166 18.3333 1.64166 17.0833 1.64166 13.9583V10.2083C1.64166 7.08325 2.89166 5.83325 6.01666 5.83325H9.76666C12.8917 5.83325 14.1417 7.08325 14.1417 10.2083Z" stroke="#020F07" stroke-width="1.19792" stroke-linecap="round" stroke-linejoin="round"/>
<path opacity="0.4" d="M18.3083 4.87496V7.62496C18.3083 9.91662 17.3916 10.8333 15.0999 10.8333H14.1416V10.2083C14.1416 7.08329 12.8916 5.83329 9.7666 5.83329H9.1416V4.87496C9.1416 2.58329 10.0583 1.66663 12.3499 1.66663H15.0999C17.3916 1.66663 18.3083 2.58329 18.3083 4.87496Z" stroke="#020F07" stroke-width="1.19792" stroke-linecap="round" stroke-linejoin="round"/>
</svg>
