<svg width="14" height="14" viewBox="0 0 14 14" fill="none" xmlns="http://www.w3.org/2000/svg">
<path d="M5.6887 1.18098C6.22516 0.0508394 7.77516 0.0508373 8.31162 1.18098L9.23876 3.13416C9.45178 3.58294 9.86357 3.894 10.3399 3.96596L12.4131 4.27917C13.6126 4.4604 14.0916 5.99307 13.2236 6.87276L11.7234 8.3931C11.3788 8.74243 11.2215 9.24573 11.3028 9.73899L11.657 11.8857C11.8619 13.1279 10.6079 14.0751 9.53499 13.4887L7.68071 12.4751C7.25466 12.2422 6.74567 12.2422 6.31961 12.4751L4.46534 13.4887C3.39242 14.0751 2.13844 13.1279 2.34335 11.8857L2.69749 9.73899C2.77886 9.24573 2.62157 8.74243 2.27688 8.3931L0.776746 6.87276C-0.0912598 5.99307 0.387715 4.4604 1.58727 4.27917L3.66041 3.96596C4.13676 3.894 4.54854 3.58294 4.76157 3.13416L5.6887 1.18098Z" fill="#28303F"/>
</svg>
