<svg width="20" height="20" viewBox="0 0 20 20" fill="none" xmlns="http://www.w3.org/2000/svg">
<path d="M10 18.9584C5.05835 18.9584 1.04169 14.9417 1.04169 10C1.04169 5.05835 5.05835 1.04169 10 1.04169C14.9417 1.04169 18.9584 5.05835 18.9584 10C18.9584 14.9417 14.9417 18.9584 10 18.9584ZM10 2.29169C5.75002 2.29169 2.29169 5.75002 2.29169 10C2.29169 14.25 5.75002 17.7084 10 17.7084C14.25 17.7084 17.7084 14.25 17.7084 10C17.7084 5.75002 14.25 2.29169 10 2.29169Z" fill="#020F07"/>
<path d="M13.0917 13.275C12.9833 13.275 12.875 13.25 12.775 13.1834L10.1917 11.6417C9.55001 11.2584 9.07501 10.4167 9.07501 9.67503V6.25836C9.07501 5.9167 9.35835 5.63336 9.70001 5.63336C10.0417 5.63336 10.325 5.9167 10.325 6.25836V9.67503C10.325 9.97503 10.575 10.4167 10.8333 10.5667L13.4167 12.1084C13.7167 12.2834 13.8083 12.6667 13.6333 12.9667C13.5083 13.1667 13.3 13.275 13.0917 13.275Z" fill="#020F07"/>
</svg>
