<svg width="32" height="32" viewBox="0 0 32 32" fill="none" xmlns="http://www.w3.org/2000/svg">
<path fill-rule="evenodd" clip-rule="evenodd" d="M28.8002 16C28.8002 19.3947 27.4516 22.6505 25.0512 25.0509C22.6507 27.4514 19.395 28.8 16.0002 28.8C12.6054 28.8 9.34969 27.4514 6.94923 25.0509C4.54876 22.6505 3.2002 19.3947 3.2002 16C3.2002 12.6052 4.54876 9.34945 6.94923 6.94898C9.34969 4.54852 12.6054 3.19995 16.0002 3.19995C19.395 3.19995 22.6507 4.54852 25.0512 6.94898C27.4516 9.34945 28.8002 12.6052 28.8002 16ZM20.0002 12C20.0002 13.0608 19.5788 14.0782 18.8286 14.8284C18.0785 15.5785 17.0611 16 16.0002 16C14.9393 16 13.9219 15.5785 13.1718 14.8284C12.4216 14.0782 12.0002 13.0608 12.0002 12C12.0002 10.9391 12.4216 9.92167 13.1718 9.17152C13.9219 8.42138 14.9393 7.99995 16.0002 7.99995C17.0611 7.99995 18.0785 8.42138 18.8286 9.17152C19.5788 9.92167 20.0002 10.9391 20.0002 12ZM16.0002 19.2C14.5129 19.1986 13.0456 19.5434 11.7146 20.2071C10.3836 20.8708 9.22528 21.8352 8.3314 23.024C9.30459 24.0891 10.4893 24.9394 11.8097 25.5207C13.1302 26.1021 14.5574 26.4015 16.0002 26.4C17.443 26.4015 18.8702 26.1021 20.1906 25.5207C21.5111 24.9394 22.6958 24.0891 23.669 23.024C22.7751 21.8352 21.6168 20.8708 20.2858 20.2071C18.9548 19.5434 17.4875 19.1986 16.0002 19.2Z" fill="#808783"/>
</svg>
