<svg width="28" height="29" viewBox="0 0 28 29" fill="none" xmlns="http://www.w3.org/2000/svg">
<rect y="0.5" width="28" height="28" rx="14" fill="#808783"/>
<path d="M10.4415 16.7848C9.51309 17.3376 7.07877 18.4665 8.56144 19.879C9.28571 20.569 10.0924 21.0625 11.1065 21.0625H16.8935C17.9076 21.0625 18.7143 20.569 19.4385 19.879C20.9212 18.4665 18.4869 17.3376 17.5585 16.7848C15.3813 15.4884 12.6187 15.4884 10.4415 16.7848Z" fill="#F2F3F3" stroke="#F2F3F3" stroke-width="0.984375" stroke-linecap="round" stroke-linejoin="round"/>
<path d="M16.9531 10.8906C16.9531 12.5216 15.631 13.8438 14 13.8438C12.369 13.8438 11.0469 12.5216 11.0469 10.8906C11.0469 9.25966 12.369 7.9375 14 7.9375C15.631 7.9375 16.9531 9.25966 16.9531 10.8906Z" fill="#F2F3F3" stroke="#F2F3F3" stroke-width="0.984375"/>
</svg>
