<svg width="33" height="32" viewBox="0 0 33 32" fill="none" xmlns="http://www.w3.org/2000/svg">
<rect x="0.926758" width="32" height="32" rx="16" fill="white"/>
<path d="M16.7383 20.1143C17.6142 20.1143 18.4542 20.0277 19.2327 19.8691C20.2051 19.6709 20.6913 19.5717 21.135 19.0013C21.5786 18.4309 21.5786 17.7761 21.5786 16.4664V15.5336C21.5786 14.2239 21.5786 13.5691 21.135 12.9987C20.6913 12.4283 20.2051 12.3291 19.2327 12.1309C18.4542 11.9722 17.6142 11.8857 16.7383 11.8857C15.8623 11.8857 15.0223 11.9722 14.2438 12.1309C13.2715 12.3291 12.7853 12.4283 12.3416 12.9987C11.8979 13.5691 11.8979 14.2239 11.8979 15.5336V16.4664C11.8979 17.7761 11.8979 18.4309 12.3416 19.0013C12.7853 19.5717 13.2715 19.6709 14.2438 19.8691C15.0223 20.0277 15.8623 20.1143 16.7383 20.1143Z" stroke="#159947"/>
<path d="M18.656 16.1515C18.5842 16.4447 18.202 16.6553 17.4376 17.0766C16.6062 17.5347 16.1905 17.7637 15.8538 17.6755C15.7398 17.6456 15.6347 17.593 15.5465 17.5217C15.2861 17.3112 15.2861 16.8741 15.2861 16C15.2861 15.1259 15.2861 14.6888 15.5465 14.4783C15.6347 14.407 15.7398 14.3545 15.8538 14.3246C16.1905 14.2363 16.6062 14.4654 17.4376 14.9235C18.202 15.3447 18.5842 15.5553 18.656 15.8486C18.6805 15.9484 18.6805 16.0517 18.656 16.1515Z" stroke="#159947" stroke-linejoin="round"/>
</svg>
